<?xml version="1.0" encoding="utf-8"?>
<!-- Generator: Adobe Illustrator 18.0.0, SVG Export Plug-In . SVG Version: 6.00 Build 0)  -->
<!DOCTYPE svg PUBLIC "-//W3C//DTD SVG 1.1//EN" "http://www.w3.org/Graphics/SVG/1.1/DTD/svg11.dtd">
<svg version="1.1" id="Layer_1" xmlns="http://www.w3.org/2000/svg" xmlns:xlink="http://www.w3.org/1999/xlink" x="0px" y="0px"
	 viewBox="0 0 612 792" enable-background="new 0 0 612 792" xml:space="preserve">
<g>
	<path d="M306,701.9c-168.7,0-306-137.3-306-306C0,332.7,19.2,272,55.7,220.3c35.6-50.4,84.8-88.6,142.4-110.6
		c3.2-1.2,6.7,0.4,7.9,3.6c1.2,3.2-0.4,6.7-3.6,7.9c-55.3,21-102.6,57.8-136.7,106.2c-34.9,49.5-53.4,107.8-53.4,168.5
		c0,162,131.8,293.7,293.7,293.7s293.7-131.8,293.7-293.7c0-75.5-30.1-150-82.5-204.5c-56.5-57.2-136.4-91.7-205.1-88.9v43.6
		c0,3.4-2.7,6.1-6.1,6.1c-3.4,0-6.1-2.7-6.1-6.1V96.7c0-3.2,2.5-5.9,5.7-6.1c73.4-5.2,160,31,220.5,92.3c54.6,56.8,86,134.4,86,213
		C612,564.6,474.7,701.9,306,701.9z"/>
	<path d="M306,402c-0.8,0-1.6-0.2-2.3-0.5c-2.3-0.9-3.8-3.2-3.8-5.7V145.4c0-3.4,2.7-6.1,6.1-6.1c3.4,0,6.1,2.7,6.1,6.1v235.6
		l103.6-103.6c2.4-2.4,6.3-2.4,8.7,0c2.4,2.4,2.4,6.3,0,8.7L310.3,400.2C309.2,401.4,307.6,402,306,402z"/>
</g>
</svg>
