<?xml version="1.0" encoding="iso-8859-1"?>
<!-- Generator: Adobe Illustrator 16.0.0, SVG Export Plug-In . SVG Version: 6.00 Build 0)  -->
<!DOCTYPE svg PUBLIC "-//W3C//DTD SVG 1.1//EN" "http://www.w3.org/Graphics/SVG/1.1/DTD/svg11.dtd">
<svg version="1.1" id="Layer_1" xmlns="http://www.w3.org/2000/svg" xmlns:xlink="http://www.w3.org/1999/xlink" x="0px" y="0px"
	 width="36px" height="36px" viewBox="0 0 36 36" style="enable-background:new 0 0 36 36;" xml:space="preserve">
<g>
	<path style="fill:#010101;" d="M28.543,20.719L28.107,7.084h-2.195l-0.521,13.635h-1.365l0.002-2.068l-3.551,1.911l0.002-2.03
		l-3.619,1.917l0.002-1.798l-3.551,1.911l0.002-2.03l-4.537,2.402v11.826h11.871v-3.267h6.168v3.267H29.5V20.719H28.543z
		 M13.605,24.594H10.48v-2.042h3.125V24.594z M18.189,24.594h-3.125v-2.042h3.125V24.594z M22.771,24.594h-3.125v-2.042h3.125
		V24.594z M27.355,24.594H24.23v-2.042h3.125V24.594z"/>
	<path style="fill:#010101;" d="M20.172,5.916c-0.24-0.013-0.477-0.054-0.693-0.105c-0.873-0.224-1.461-0.544-1.461-0.544
		s0.09,0.137,0.289,0.346c0.201,0.206,0.51,0.489,0.963,0.731c0.225,0.121,0.482,0.241,0.781,0.307
		c0.293,0.078,0.631,0.122,0.979,0.078c0.707-0.05,1.412-0.46,1.891-0.987c0.199-0.192,0.443-0.52,0.623-0.631
		c0.178-0.145,0.396-0.311,0.619-0.38c0.441-0.182,0.928-0.173,1.355-0.067c0.424,0.105,0.783,0.267,1.029,0.391
		c0.248,0.125,0.389,0.212,0.389,0.212s-0.078-0.146-0.264-0.368c-0.188-0.218-0.484-0.522-0.945-0.77
		c-0.229-0.126-0.504-0.231-0.816-0.286c-0.311-0.042-0.666-0.061-1.008,0.046c-0.178,0.039-0.346,0.102-0.506,0.188
		c-0.17,0.067-0.326,0.174-0.477,0.296c-0.338,0.245-0.469,0.446-0.732,0.688c-0.361,0.419-0.811,0.691-1.289,0.799
		C20.66,5.911,20.412,5.935,20.172,5.916z"/>
	<path style="fill:#010101;" d="M13.363,5.279c0.225,0.121,0.484,0.241,0.783,0.307c0.293,0.078,0.629,0.122,0.977,0.078
		c0.709-0.05,1.414-0.46,1.893-0.987c0.199-0.192,0.441-0.52,0.623-0.631c0.176-0.145,0.396-0.311,0.619-0.38
		c0.441-0.182,0.928-0.173,1.354-0.067c0.426,0.105,0.783,0.267,1.031,0.391c0.248,0.125,0.387,0.212,0.387,0.212
		s-0.076-0.146-0.264-0.368c-0.188-0.218-0.482-0.522-0.945-0.77c-0.229-0.126-0.502-0.231-0.814-0.286
		c-0.311-0.042-0.666-0.061-1.01,0.046c-0.176,0.039-0.344,0.102-0.504,0.188c-0.17,0.067-0.326,0.174-0.477,0.296
		c-0.34,0.245-0.471,0.446-0.732,0.688c-0.361,0.419-0.813,0.691-1.289,0.799c-0.238,0.052-0.486,0.076-0.729,0.057
		c-0.24-0.013-0.477-0.054-0.693-0.105c-0.871-0.224-1.459-0.544-1.459-0.544s0.09,0.137,0.289,0.346
		C12.602,4.754,12.912,5.037,13.363,5.279z"/>
</g>
</svg>
