<?xml version="1.0" encoding="utf-8"?>
<!-- Generator: Adobe Illustrator 18.0.0, SVG Export Plug-In . SVG Version: 6.00 Build 0)  -->
<!DOCTYPE svg PUBLIC "-//W3C//DTD SVG 1.1//EN" "http://www.w3.org/Graphics/SVG/1.1/DTD/svg11.dtd">
<svg version="1.1" id="Layer_1" xmlns="http://www.w3.org/2000/svg" xmlns:xlink="http://www.w3.org/1999/xlink" x="0px" y="0px"
	 viewBox="0 0 612 792" enable-background="new 0 0 612 792" xml:space="preserve">
<path d="M304.6,768.8c-0.4,0-0.9,0-1.3-0.1c-2.9-0.6-5-3.2-5-6.2V61.8c-21.5,52.6-43,105.1-64.5,157.6
	c-25.5,62.2-50.9,124.5-76.4,186.9c-1,2.4-3.3,3.9-5.9,3.9H6.3c-3.5,0-6.3-2.8-6.3-6.3c0-3.5,2.8-6.3,6.3-6.3h140.9
	c24.9-61.1,49.9-122,74.8-182.9c25.6-62.4,51.1-124.9,76.7-187.5c1.1-2.8,4.1-4.4,7.1-3.8c3,0.6,5.1,3.2,5.1,6.2v703.6
	c23-50.7,46-101.6,69.1-152.5c27.1-59.8,54.3-119.7,81.2-179.3c1-2.3,3.3-3.7,5.8-3.7h138.7c3.5,0,6.3,2.8,6.3,6.3
	c0,3.5-2.8,6.3-6.3,6.3H471.1c-26.4,58.4-53,117-79.5,175.6c-27.1,59.8-54.2,119.6-81.2,179.3C309.3,767.4,307,768.8,304.6,768.8z"
	/>
</svg>
