<?xml version="1.0" encoding="utf-8"?>
<!-- Generator: Adobe Illustrator 18.0.0, SVG Export Plug-In . SVG Version: 6.00 Build 0)  -->
<!DOCTYPE svg PUBLIC "-//W3C//DTD SVG 1.1//EN" "http://www.w3.org/Graphics/SVG/1.1/DTD/svg11.dtd">
<svg version="1.1" id="Layer_1" xmlns="http://www.w3.org/2000/svg" xmlns:xlink="http://www.w3.org/1999/xlink" x="0px" y="0px"
	 viewBox="0 0 612 792" enable-background="new 0 0 612 792" xml:space="preserve">
<g>
	<path d="M310,532.6c-72.1,0-130.8-61.3-130.8-136.6c0-17.3,3.2-34.7,9.5-51.7c1-2.6,3.9-4,6.5-3c2.6,1,4,3.9,3,6.5
		c-5.9,15.9-8.9,32.1-8.9,48.2c0,69.7,54.1,126.4,120.7,126.4S430.7,465.7,430.7,396S376.6,269.6,310,269.6c-2.8,0-5.1-2.3-5.1-5.1
		s2.3-5.1,5.1-5.1c72.1,0,130.8,61.3,130.8,136.6C440.9,471.3,382.2,532.6,310,532.6z"/>
	<path d="M606.9,401.1c-1.4,0-2.8-0.6-3.8-1.7c-0.6-0.7-58.4-65.6-148.6-102.6c-2.6-1.1-3.8-4-2.8-6.6c1.1-2.6,4-3.8,6.6-2.8
		c92.5,37.9,151.8,104.6,152.4,105.3c1.8,2.1,1.6,5.3-0.5,7.1C609.3,400.7,608.1,401.1,606.9,401.1z"/>
	<path d="M310,532.6c-109.5,0-187.6-36.2-233.9-66.6C25.9,433,2,400.3,1,399c-1.6-2.3-1.1-5.4,1.1-7.1c2.3-1.6,5.4-1.1,7.1,1.1l0,0
		c0.2,0.3,24.1,32.8,73,64.8c45,29.5,121.1,64.7,227.9,64.7c108.2,0,182-35.1,224.8-64.6c46.5-31.9,67.6-64.3,67.8-64.6
		c1.5-2.4,4.6-3,7-1.5c2.4,1.5,3,4.6,1.5,7c-0.9,1.4-22.2,34.1-70.2,67.2C497,496.3,421.1,532.6,310,532.6z"/>
	<path d="M5.1,401.1c-1.4,0-2.7-0.5-3.7-1.6c-1.9-2.1-1.8-5.3,0.3-7.2c0.4-0.3,36.7-33.6,92.4-66.4c51.6-30.3,130.9-66.5,216-66.5
		c2.8,0,5.1,2.3,5.1,5.1s-2.3,5.1-5.1,5.1c-82.7,0-160.2,35.3-210.6,64.9c-54.9,32.2-90.5,64.9-90.9,65.2
		C7.5,400.6,6.3,401.1,5.1,401.1z"/>
</g>
</svg>
