<?xml version="1.0" encoding="utf-8"?>
<!-- Generator: Adobe Illustrator 18.0.0, SVG Export Plug-In . SVG Version: 6.00 Build 0)  -->
<!DOCTYPE svg PUBLIC "-//W3C//DTD SVG 1.1//EN" "http://www.w3.org/Graphics/SVG/1.1/DTD/svg11.dtd">
<svg version="1.1" id="Layer_1" xmlns="http://www.w3.org/2000/svg" xmlns:xlink="http://www.w3.org/1999/xlink" x="0px" y="0px"
	 viewBox="0 0 612 792" enable-background="new 0 0 612 792" xml:space="preserve">
<path d="M559.6,0H52.4c0,0,0,0,0,0c-0.4,0-0.7,0.1-1,0.1c-0.1,0-0.2,0-0.3,0c-0.2,0.1-0.5,0.1-0.7,0.2c-1.5,0.5-2.8,1.4-3.6,2.7
	c-0.1,0.1-0.1,0.2-0.2,0.4C46.3,3.7,46.1,4,46,4.3c0,0.1-0.1,0.2-0.1,0.3c-0.1,0.3-0.2,0.7-0.3,1c0,0,0,0,0,0c0,0.2,0,0.4-0.1,0.7
	c0,0.2-0.1,0.4-0.1,0.7c0,0,0,0,0,0c0,0.4,0.1,0.7,0.1,1.1c0,0.1,0,0.2,0,0.3c0.1,0.3,0.2,0.6,0.3,0.9c0,0.1,0.1,0.3,0.1,0.4
	c0.1,0.1,0.1,0.2,0.2,0.4c0.2,0.4,0.4,0.8,0.7,1.2c0.6,0.7,1.2,1.3,2,1.8c0.2,0.1,0.5,0.3,0.7,0.4c0.1,0,0.2,0.1,0.3,0.1
	c0.3,0.1,0.7,0.2,1,0.3c0,0,0,0,0,0l395.2,76.9v686l-387-75.3V114.8c0-3.8-3.1-6.9-6.9-6.9s-6.9,3.1-6.9,6.9v592.2
	c0,3.3,2.4,6.2,5.6,6.8l400.9,78c0.4,0.1,0.9,0.1,1.3,0.1c1.6,0,3.2-0.6,4.4-1.6c1.6-1.3,2.5-3.3,2.5-5.4V84.9
	c0-3.3-2.4-6.2-5.6-6.8L124.5,13.9h428.1v691.6c0,3.8,3.1,6.9,6.9,6.9s6.9-3.1,6.9-6.9V6.9C566.5,3.1,563.4,0,559.6,0z"/>
</svg>
