<?xml version="1.0" encoding="utf-8"?>
<!-- Generator: Adobe Illustrator 18.0.0, SVG Export Plug-In . SVG Version: 6.00 Build 0)  -->
<!DOCTYPE svg PUBLIC "-//W3C//DTD SVG 1.1//EN" "http://www.w3.org/Graphics/SVG/1.1/DTD/svg11.dtd">
<svg version="1.1" id="Layer_1" xmlns="http://www.w3.org/2000/svg" xmlns:xlink="http://www.w3.org/1999/xlink" x="0px" y="0px"
	 viewBox="0 0 612 792" enable-background="new 0 0 612 792" xml:space="preserve">
<g>
	<path d="M558.2,618.1H53.8c-2.4,0-4.4-1.7-4.8-4.1l-49-302.5c-0.2-1.4,0.2-2.8,1.1-3.9c0.9-1.1,2.3-1.7,3.7-1.7h484
		c0.1,0,0.3,0,0.4,0c0.2,0,20.6,1.5,32.4-9.4c5.6-5.2,8.5-12.6,8.5-22.1v-90.9h-98.4l-11.3,55.5c-0.5,2.3-2.4,3.9-4.8,3.9H82.3v16
		c0,2.7-2.2,4.9-4.9,4.9c-2.7,0-4.9-2.2-4.9-4.9v-20.9c0-2.7,2.2-4.9,4.9-4.9h334.3l11.3-55.5c0.5-2.3,2.4-3.9,4.8-3.9h107.3
		c2.7,0,4.9,2.2,4.9,4.9v95.7c0,12.3-3.9,22.1-11.7,29.2c-14.4,13.3-36.9,12.1-39.6,11.9H10.6l47.4,292.8h496.1L602.4,310
		c0.4-2.6,2.9-4.4,5.6-4c2.6,0.4,4.4,2.9,4,5.6L563,614C562.6,616.4,560.6,618.1,558.2,618.1z"/>
</g>
</svg>
