<?xml version="1.0" encoding="utf-8"?>
<!-- Generator: Adobe Illustrator 18.0.0, SVG Export Plug-In . SVG Version: 6.00 Build 0)  -->
<!DOCTYPE svg PUBLIC "-//W3C//DTD SVG 1.1//EN" "http://www.w3.org/Graphics/SVG/1.1/DTD/svg11.dtd">
<svg version="1.1" id="Layer_1" xmlns="http://www.w3.org/2000/svg" xmlns:xlink="http://www.w3.org/1999/xlink" x="0px" y="0px"
	 viewBox="0 0 612 792" enable-background="new 0 0 612 792" xml:space="preserve">
<g>
	<path d="M72.7,699c-15.7,0-35.3-4.5-52.6-21.6c-2.7-2.1-18.3-15.1-20-36.9c-1.4-18.5,7.6-37.6,26.7-56.8l253.7-253.7
		c0.1-0.1,14.5-15.5,11.2-34.6c-11.1-62.2,4.2-117.8,43-156.7c18.5-18.5,42.5-32.7,69.3-40.9c52.1-15.2,111.2,5.6,143.9,50.5
		c3.4,4.7,6.7,9.9,9.8,15.3c1.3,1.3,2.6,2.6,3.8,3.9c52.8,53.8,54.9,100.9,47.3,130.8c-9,35.4-32.1,68.2-63.4,89.9
		c-64.2,45.6-154.7,38-210.6-17.9c-2.2-2.2-2.2-5.8,0-8c2.2-2.2,5.8-2.2,8,0c25,25,58.8,40.5,95.1,43.6c36.4,3.1,72.3-6.5,101-26.9
		c29.2-20.3,50.7-50.7,59-83.5c6.1-24,5.1-60.2-29.1-102.9c1.9,10.6,1,21.2-4.6,30.7c-12.7,21.7-39,22.3-59.4,13.1
		c-12.8-6.1-24.1-16.4-31.8-29c-6.5-10.5-9.8-20.9-9.8-31c0-13.1,4.6-24.2,12.9-31.1c10.5-9.1,26.4-12,41.6-7.4
		c3.4,0.9,6.7,2.1,9.9,3.5c-31-31.7-78.2-45.1-120.2-32.9c-24.9,7.7-47.3,20.9-64.5,38.1c-36.2,36.2-50.3,88.3-39.9,146.8
		c4.3,24.9-13.5,43.6-14.2,44.4L34.8,591.8c-16.7,16.7-24.6,32.8-23.4,47.9c1.4,18.2,15.6,28.9,15.8,29c0.2,0.2,0.5,0.4,0.7,0.6
		c30,30,68.8,14.7,70.4,14.1c0.3-0.1,0.5-0.2,0.8-0.3c23.3-5.7,23.2-31.6,23.1-33.7c-0.8-9.5,1.9-17.3,8-23.4c5.7-5.7,14.5-8.8,23-8
		c3.1,0.3,5.4,3,5.1,6.1c-0.3,3.1-3,5.4-6.1,5.1c-5.2-0.5-10.6,1.3-14,4.8c-3.8,3.8-5.3,8.4-4.7,14.7c0,0.1,0,0.2,0,0.2
		c0,0.4,0.3,9.3-3.3,19.3c-4.9,13.5-14.6,22.4-28,25.8C99.6,694.8,87.9,699,72.7,699z M503.3,147.2c-7.6,0-14.7,2.4-19.9,6.9
		c-7.8,6.5-8.9,16.9-8.9,22.5c0,7.9,2.7,16.4,8.1,25.1c6.6,10.8,16.2,19.5,26.9,24.6c15.7,7,35.8,7.1,45-8.6
		c8.2-14,2.1-32.4-5.9-47.3c-9-8.8-20.3-17.9-34-21.6C510.7,147.7,506.9,147.2,503.3,147.2z"/>
	<path d="M156,629.2c-0.9,0-1.7,0-2.6-0.1c-3.1-0.3-5.4-3-5.1-6.1c0.3-3.1,3-5.4,6.1-5.1c5.2,0.5,10.6-1.3,14-4.7
		c3.8-3.8,5.3-8.4,4.7-14.7c-0.3-3.1,2-5.8,5.1-6.1c3.1-0.3,5.8,2,6.1,5.1c0.8,9.5-1.9,17.5-8,23.6
		C171.2,626.2,163.6,629.2,156,629.2z"/>
	<path d="M178.7,604.2c-2.9,0-5.4-2.2-5.6-5.2c-0.8-9.5,1.9-17.5,8-23.6c5.7-5.7,14.5-8.8,23-8c3.1,0.3,5.4,3,5.1,6.1
		c-0.3,3.1-3,5.4-6.1,5.1c-5.2-0.5-10.6,1.3-14,4.7c-3.8,3.8-5.3,8.4-4.7,14.7c0.3,3.1-2,5.8-5.1,6.1
		C179,604.2,178.9,604.2,178.7,604.2z"/>
	<path d="M207,578.2c-0.9,0-1.7,0-2.6-0.1c-3.1-0.3-5.4-3-5.1-6.1c0.3-3.1,3-5.4,6.1-5.1c5.2,0.5,10.6-1.3,14-4.7
		c3.8-3.8,5.3-8.4,4.7-14.7c-0.3-3.1,2-5.8,5.1-6.1c3.1-0.3,5.8,2,6.1,5.1c0.8,9.5-1.9,17.5-8,23.6
		C222.2,575.2,214.6,578.2,207,578.2z"/>
	<path d="M229.7,553.2c-2.9,0-5.4-2.2-5.6-5.2c-0.8-9.5,1.9-17.5,8-23.6c5.7-5.7,14.5-8.8,23-8c3.1,0.3,5.4,3,5.1,6.1
		c-0.3,3.1-3,5.4-6.1,5.1c-5.2-0.5-10.6,1.3-14,4.7c-3.8,3.8-5.3,8.4-4.7,14.7c0.3,3.1-2,5.8-5.1,6.1
		C230,553.2,229.9,553.2,229.7,553.2z"/>
	<path d="M258,527.2c-0.9,0-1.7,0-2.6-0.1c-3.1-0.3-5.4-3-5.1-6.1c0.3-3.1,3-5.4,6.1-5.1c5.2,0.5,10.6-1.3,14-4.8
		c3.8-3.8,5.3-8.4,4.7-14.7c-0.3-3.1,2-5.8,5.1-6.1c3.1-0.3,5.8,2,6.1,5.1c0.8,9.5-1.9,17.5-8,23.6
		C273.2,524.2,265.6,527.2,258,527.2z"/>
	<path d="M280.7,501.6c-2.9,0-5.4-2.2-5.6-5.2c-0.8-9.5,1.9-17.5,8-23.6c5.7-5.7,14.5-8.8,23-8c3.1,0.3,5.4,3,5.1,6.1
		c-0.3,3.1-3,5.4-6.1,5.1c-5.2-0.5-10.6,1.3-14,4.7c-3.8,3.8-5.3,8.4-4.7,14.7c0.3,3.1-2,5.8-5.1,6.1
		C281,501.6,280.9,501.6,280.7,501.6z"/>
	<path d="M309,476.2c-0.9,0-1.8,0-2.7-0.1c-3.1-0.3-5.4-3-5.1-6.1c0.3-3.1,3-5.4,6.1-5.1c6.3,0.6,11.1-2.3,14.1-4.9
		c3.5-3.6,5.1-8.7,4.6-14.5c-0.3-3.1,2-5.8,5.1-6.1c3.1-0.3,5.8,2,6.1,5.1c0.8,9.2-2,17.6-8,23.6c-0.1,0.1-0.2,0.2-0.3,0.3
		C323.1,473.5,316.3,476.2,309,476.2z"/>
</g>
</svg>
