<?xml version="1.0" encoding="utf-8"?>
<!-- Generator: Adobe Illustrator 17.0.0, SVG Export Plug-In . SVG Version: 6.00 Build 0)  -->
<!DOCTYPE svg PUBLIC "-//W3C//DTD SVG 1.1//EN" "http://www.w3.org/Graphics/SVG/1.1/DTD/svg11.dtd">
<svg version="1.1" id="Layer_1" xmlns="http://www.w3.org/2000/svg" xmlns:xlink="http://www.w3.org/1999/xlink" x="0px" y="0px"
	 width="464.1577148px" height="118.9487991px" viewBox="0 0 464.1577148 118.9487991"
	 enable-background="new 0 0 464.1577148 118.9487991" xml:space="preserve">
<rect y="-0.0000187" fill="#FFFFED" width="464.1577148" height="118.9487991"/>
<path fill="#0085CD" d="M45.5321999,38.4438744l24.974102-29.7304745h9.2680969v60.1337967h-6.7626953V16.3930988
	L45.5321999,49.0522995L18.0590992,16.3930988v52.4541016h-6.7621994V8.7133999h9.267601L45.5321999,38.4438744z"/>
<path fill="#0085CD" d="M88.8784027,68.8471985V8.7133999h6.7626953v60.1337967H88.8784027z"/>
<path fill="#0085CD" d="M160.5308075,61.1635971V8.7133999h6.7640991v60.1337967h-9.2661133l-44.0966949-52.4541016v52.4541016
	h-6.7606964V8.7133999h9.2626953L160.5308075,61.1635971z"/>
<path fill="#0085CD" d="M231.6802063,8.7133999v6.7676001h-48.0996094v19.8711014h38.6670074v6.8515968h-38.6670074v19.877903
	h48.0996094v6.7655983h-54.8687134V8.7133999H231.6802063z"/>
<path fill="#0085CD" d="M300.6669922,18.8227997v17.6190758c0,2.7852249-0.9701843,5.1465225-2.9242859,7.0938225
	c-1.9507141,1.9560013-4.3150024,2.9267006-7.093811,2.9267006h-9.1898804l18.871582,22.3848h-8.9311829l-18.7895203-22.3848
	h-22.0484009c-0.5043945,0-1.5927887-0.1132011-3.2606964-0.3377991v22.722599h-6.7602997V8.7973995h50.1083984
	c2.7788086,0,5.1430969,0.9745998,7.093811,2.9238005C299.6968079,13.6704998,300.6669922,16.0375996,300.6669922,18.8227997z
	 M250.5614929,39.6196976h40.0874023c0.8862915,0,1.6333008-0.3085976,2.2481079-0.9218979
	c0.6146851-0.6113014,0.9217834-1.3633003,0.9217834-2.2559242V18.8227997c0-0.8906002-0.3070984-1.6620998-0.9217834-2.3008003
	c-0.6148071-0.6406002-1.3618164-0.9608994-2.2481079-0.9608994h-40.0874023c-0.8939972,0-1.6576996,0.3202991-2.3011932,0.9608994
	c-0.6342926,0.6387005-0.9595032,1.4102001-0.9595032,2.3008003v17.6190758c0,0.8926239,0.3252106,1.6446228,0.9595032,2.2559242
	C248.9037933,39.3111,249.6674957,39.6196976,250.5614929,39.6196976z"/>
<path fill="#0085CD" d="M344.9320984,62.2436981l30.7304993-53.5302963h7.9350891l-34.7416992,60.1337967h-7.8476868
	L306.1820984,8.7133999h7.9321899L344.9320984,62.2436981z"/>
<path fill="#0085CD" d="M398.7944031,8.7133999h40.0888977c2.7851868,0,5.1464844,0.9745998,7.1005859,2.9278002
	c1.9473267,1.9413996,2.9238281,4.3125,2.9238281,7.0976v50.1083984h-6.7700195V46.8784981h-46.5971985v21.9687004h-6.7640991
	V18.7388c0-2.7851,0.9736023-5.1562004,2.9179077-7.0976C393.6445007,9.6879997,396.0155945,8.7133999,398.7944031,8.7133999z
	 M395.5404968,40.1138h46.5971985v-21.375c0-0.8906002-0.3173828-1.6562004-0.960907-2.3008003
	c-0.640686-0.6406002-1.4039001-0.9569998-2.2934875-0.9569998h-40.0888977c-0.8862,0-1.6590881,0.3163996-2.293396,0.9569998
	c-0.6436157,0.6445999-0.9605103,1.4102001-0.9605103,2.3008003V40.1138z"/>
<g>
	<path d="M63.4193993,106.0331955c-0.3783989,0.7784042-0.8998985,1.4365997-1.5643997,1.9776001
		c-0.6615982,0.5429993-1.4589996,0.9658051-2.3803978,1.2723999c-0.9277,0.3061981-1.9419022,0.4585037-3.0547028,0.4585037
		c-1.8237,0-3.4716988-0.3031998-4.9423981-0.9140015c-1.4696999-0.6093979-2.8857002-1.5214996-4.2612-2.7446976
		l1.1128006-1.271904c0.6337967,0.5897751,1.2562981,1.0957031,1.8783989,1.5223999
		c0.6161995,0.4213791,1.2533989,0.7651978,1.9076996,1.0419998c0.6519012,0.2740021,1.3349991,0.4766006,2.0581017,0.6255035
		c0.7167969,0.1396942,1.4975967,0.2026978,2.3471985,0.2026978c0.8466988,0,1.6348-0.1099014,2.3525009-0.3355026
		c0.7168007-0.2299957,1.3232994-0.5477982,1.8261986-0.9463196c0.4981003-0.4115753,0.892601-0.8886795,1.1734009-1.4398804
		c0.2826996-0.5556946,0.4227982-1.1615982,0.4227982-1.8085938v-0.0694046c0-0.6092987-0.089798-1.152298-0.2753983-1.6323013
		c-0.1836014-0.4779968-0.5219994-0.9105988-1.0116997-1.3041992c-0.4941025-0.3955002-1.1514015-0.7440948-1.9785004-1.0599976
		c-0.8251991-0.3173981-1.8866997-0.6044998-3.1934013-0.8666992c-1.3690987-0.2807999-2.544899-0.6093979-3.528801-0.9916992
		c-0.9755974-0.3858032-1.777298-0.8267059-2.3934975-1.3423004c-0.6231003-0.5088043-1.0737991-1.1001053-1.3570023-1.7730026
		c-0.2845993-0.6786957-0.4237976-1.4501953-0.4237976-2.3188019v-0.0615005c0-0.852623,0.1851006-1.6401978,0.5527-2.3740997
		c0.3701973-0.7259979,0.8814011-1.3661957,1.5366974-1.902298c0.6508026-0.5478973,1.4238014-0.9706955,2.3164024-1.2753983
		c0.8920975-0.3080978,1.8719978-0.4604034,2.9384003-0.4604034c1.649498,0,3.0839996,0.2299042,4.2905998,0.6889038
		c1.204998,0.4584961,2.3871994,1.1519012,3.5429001,2.0855026l-1.081501,1.3417969
		c-1.0854988-0.9336243-2.1767998-1.6044998-3.2783012-1.9916992c-1.0966988-0.3887024-2.2763977-0.5865021-3.5429993-0.5865021
		c-0.8471985,0-1.6133003,0.1147995-2.2958984,0.336998c-0.6889992,0.2285004-1.2769012,0.5429001-1.7637024,0.9365005
		c-0.4897003,0.3877029-0.8671989,0.846199-1.1259003,1.3662033c-0.2587967,0.5268021-0.3959999,1.0762024-0.3959999,1.6644974
		v0.0693817c0,0.6093216,0.0952034,1.1538162,0.2807007,1.6449966c0.1851006,0.4844208,0.5235023,0.9385223,1.0102997,1.3403244
		c0.4897003,0.4019012,1.172802,0.764679,2.0438995,1.0888977c0.8682022,0.3306046,1.9780006,0.6337814,3.3281021,0.9188995
		c2.6503983,0.5410995,4.5694008,1.3091049,5.7397995,2.2994003c1.1753006,0.9887009,1.7631989,2.3242035,1.7631989,3.9964752
		v0.0679245C63.9926987,104.415596,63.8036995,105.2646942,63.4193993,106.0331955z"/>
	<path d="M69.2490005,88.4272995v-2.1860046h1.989296v2.1860046H69.2490005z M69.4452972,109.4141006V92.7705002h1.5996017
		v16.6436005H69.4452972z"/>
	<path d="M100.9057999,109.4141006v-9.8877029c0-1.8003006-0.4336014-3.205101-1.3061981-4.1952972
		c-0.8735046-0.9873047-2.0771027-1.4844055-3.6221008-1.4844055c-0.6977005,0-1.3662033,0.1294022-2.0073013,0.3950043
		c-0.6439972,0.2593002-1.2012024,0.6420975-1.6801987,1.1376953c-0.4794998,0.4994812-0.8618011,1.1202011-1.1406021,1.8442993
		c-0.2831955,0.7275009-0.4243011,1.5639038-0.4243011,2.4990005v9.6914063h-1.5980988v-9.9863052
		c0-1.7406998-0.4389954-3.1064987-1.3061981-4.0966949c-0.8721008-0.9873047-2.0570984-1.4844055-3.5586014-1.4844055
		c-0.7422028,0-1.4346008,0.153801-2.0853958,0.4570999c-0.6548004,0.3027039-1.2212067,0.7275009-1.7007065,1.2797012
		c-0.4785004,0.5332031-0.8569946,1.1669998-1.1269989,1.8897018c-0.2719955,0.7196808-0.4067001,1.4974976-0.4067001,2.3480988
		v9.592804h-1.5996017V92.7705002h1.5996017v2.9687958c0.2593002-0.4326019,0.5570984-0.8506012,0.8964996-1.2558975
		c0.3398056-0.4032974,0.7220993-0.7602005,1.1605988-1.0761032c0.4326019-0.317421,0.9424057-0.567421,1.5142059-0.7519989
		c0.5795975-0.1846008,1.2372971-0.2705002,1.9789963-0.2705002c0.7182007,0,1.3759995,0.0938034,1.9730988,0.2865982
		c0.5972061,0.1963043,1.1245041,0.4556046,1.5791016,0.7862015c0.4589996,0.3255997,0.8579025,0.7065048,1.1963043,1.141098
		c0.3339996,0.4326019,0.623497,0.8945007,0.8612976,1.3706055c0.2631989-0.4585037,0.5782013-0.9009018,0.9462967-1.3355026
		c0.3701019-0.4375,0.8037033-0.8275986,1.2906036-1.1601028c0.4897003-0.3320999,1.0429001-0.6059952,1.6654968-0.8022995
		c0.6156998-0.1927948,1.3193054-0.2865982,2.1030045-0.2865982c0.9809952,0,1.8666992,0.1685028,2.6596985,0.5009995
		c0.7919998,0.3348999,1.469696,0.8003006,2.0223999,1.3964996c0.5580978,0.6063995,0.9810028,1.3339996,1.2749023,2.1943054
		c0.2939987,0.857399,0.4404984,1.8100967,0.4404984,2.8505936v10.0869064H100.9057999z"/>
	<path d="M124.2236023,104.7299957c-0.4682007,1.0746994-1.0815048,1.9906998-1.8437042,2.7445984
		c-0.7616959,0.7520065-1.6235962,1.3257065-2.5966949,1.7291031c-0.966301,0.3989029-1.9526062,0.6059036-2.948204,0.6059036
		c-0.8282013,0-1.5904007-0.1133041-2.2866974-0.3257294c-0.698204-0.2220764-1.3208008-0.5150757-1.8803024-0.8846741
		c-0.552803-0.3725967-1.0493011-0.7891006-1.4975967-1.2705002c-0.4443054-0.4766006-0.842804-0.9820023-1.1929016-1.5064011
		v8.8134995h-1.5996017V92.7705002h1.5996017v3.7207947c0.3500977-0.5429993,0.7529984-1.0664978,1.2061005-1.5689011
		c0.4589996-0.4989929,0.966301-0.9365158,1.5195007-1.3060989c0.5541992-0.3710938,1.176796-0.6660995,1.8583984-0.8959961
		c0.6884995-0.2285995,1.4452972-0.3355026,2.2734985-0.3355026c0.9955978,0,1.9819031,0.1929016,2.948204,0.5815048
		c0.9730988,0.3925705,1.8349991,0.9580994,2.5966949,1.6987991c0.7621994,0.7352982,1.3755035,1.639595,1.8437042,2.7220993
		c0.4687958,1.0761948,0.703598,2.2901001,0.703598,3.6401978v0.0630035
		C124.9272003,102.4418716,124.6923981,103.6542969,124.2236023,104.7299957z M123.2266006,101.0904007
		c0-1.0839996-0.1744003-2.0708008-0.5220032-2.9673004c-0.3500977-0.8897018-0.8227997-1.6464996-1.4208984-2.2686005
		c-0.6010971-0.6225052-1.3003006-1.1035004-2.096199-1.4360046c-0.7929993-0.3383942-1.6308975-0.5023956-2.5019989-0.5023956
		c-0.8720016,0-1.7187042,0.1703949-2.5375977,0.5185013c-0.8159027,0.3485947-1.5390015,0.8349991-2.1723022,1.468277
		c-0.6308975,0.6338196-1.1406021,1.3823166-1.5234985,2.2524185c-0.379303,0.8721008-0.5727005,1.8378983-0.5727005,2.9057999
		v0.0615005c0,1.0712814,0.1933975,2.0405045,0.5727005,2.9268036c0.3828964,0.8768997,0.892601,1.6253967,1.5234985,2.246994
		c0.6333008,0.6254807,1.3563995,1.1034775,2.1723022,1.4522018c0.8188934,0.3480988,1.665596,0.5249023,2.5375977,0.5249023
		c0.9169998,0,1.774498-0.1655045,2.5689011-0.4926987c0.7943954-0.3193054,1.4868011-0.7891006,2.0746994-1.3970032
		c0.5917969-0.6147003,1.0561981-1.3589249,1.3906021-2.2401962c0.3378983-0.8818054,0.506897-1.8770065,0.506897-2.9834061
		V101.0904007z"/>
	<path d="M130.1421051,109.4141006V85.591301h1.5995941v23.8227997H130.1421051z"/>
	<path d="M138.0756989,88.4272995v-2.1860046h1.9878082v2.1860046H138.0756989z M138.2704926,109.4141006V92.7705002h1.5996094
		v16.6436005H138.2704926z"/>
	<path d="M153.3184052,87.0596008c-0.3746033-0.0679016-0.7730103-0.1006012-1.2105103-0.1006012
		c-2.242691,0-3.358902,1.4067993-3.358902,4.2118759v1.5996246h5.8052063v1.471199h-5.8052063v15.1724014h-1.6000977V94.2416992
		h-2.4164886v-1.471199h2.4164886v-1.6318054c0-1.8056946,0.433609-3.2040939,1.3061981-4.1796951
		c0.8666992-0.9756012,2.0879059-1.4614029,3.6528015-1.4614029c0.5019989,0,0.944809,0.028801,1.3403015,0.0937042
		c0.3877106,0.0615768,0.7705078,0.1635742,1.1412048,0.2919998v1.505394
		C154.1098938,87.2363968,153.6855011,87.1231003,153.3184052,87.0596008z"/>
	<path d="M165.5541992,110.0024948c-0.7416992,1.7422028-1.5482941,2.9687042-2.4302063,3.6738052
		c-0.8817902,0.7035751-1.9242859,1.0580978-3.1200867,1.0580978c-0.6278992,0-1.1943054-0.0580978-1.694809-0.1830978
		c-0.5034027-0.126503-1.0361938-0.3047028-1.5981903-0.5493011l0.5527954-1.4179993
		c0.4335938,0.2173004,0.8563995,0.3710938,1.2695007,0.4731979c0.4131012,0.0942001,0.9380035,0.1425018,1.5717926,0.1425018
		c0.4331055,0,0.8354034-0.0643997,1.203598-0.1943054c0.3701019-0.1312943,0.717804-0.351593,1.0469055-0.6675186
		c0.3242035-0.3143768,0.6439972-0.7245789,0.9472046-1.2220764c0.3047028-0.4990997,0.6064911-1.1050034,0.9111938-1.8213043
		l-7.9971008-16.5239944h1.8643036l6.9165039,14.8837967l6.0083008-14.8837967h1.7586975L165.5541992,110.0024948z"/>
	<path d="M177.2046051,88.4272995v-2.1860046h1.9868011v2.1860046H177.2046051z M177.3988953,109.4141006V92.7705002h1.5996094
		v16.6436005H177.3988953z"/>
	<path d="M197.9570007,109.4141006v-9.8877029c0-1.7207031-0.4521027-3.0917969-1.3706055-4.1259995
		c-0.9120941-1.0351028-2.2167969-1.5537033-3.9160004-1.5537033c-0.8275909,0-1.5849915,0.1474991-2.281189,0.4356003
		c-0.6993103,0.2998047-1.3057098,0.7114029-1.8291016,1.2285004c-0.5249023,0.5233994-0.9311981,1.1440048-1.2250977,1.8764038
		c-0.2896118,0.728096-0.4400024,1.5332947-0.4400024,2.3969955v9.6299057h-1.6000977V92.7705002h1.6000977v3.1000977
		c0.5688934-0.9790039,1.3256989-1.8070984,2.2875977-2.4829025c0.9561005-0.6708984,2.1972961-1.0028992,3.7158051-1.0028992
		c1.0468903,0,1.9838867,0.1685028,2.8105927,0.5009995c0.8222046,0.3348999,1.5258942,0.8086014,2.1024933,1.4179993
		c0.5786133,0.6088028,1.012207,1.3369064,1.3062134,2.1728058c0.2938995,0.8344955,0.4375,1.7533951,0.4375,2.7567978v10.1807022
		H197.9570007z"/>
	<path d="M220.164093,110.1987991c-0.4028931,0.9785004-0.9662933,1.8003006-1.6977997,2.463295
		c-0.7338867,0.6660995-1.5995941,1.1700058-2.6019897,1.5214996c-1.0025024,0.3418045-2.0933075,0.5220032-3.269104,0.5220032
		c-2.8139954,0-5.3652039-0.8657227-7.6533051-2.5834961l0.9473114-1.3013c2.0267944,1.5625,4.2753906,2.351593,6.7406921,2.351593
		c0.9584961,0,1.8334961-0.1391983,2.6318054-0.4101944c0.7968903-0.2690048,1.483902-0.6708984,2.0639954-1.2182007
		c0.5771027-0.535202,1.0292969-1.2061234,1.3540039-2.0048981c0.328598-0.8037033,0.4935913-1.7290039,0.4935913-2.7969055
		v-2.4217987c-0.3700867,0.5282974-0.7836914,1.0140991-1.2411957,1.4759979
		c-0.4584961,0.4512024-0.9658051,0.8614044-1.5336914,1.2212067c-0.5703125,0.3578949-1.1972046,0.6415939-1.8935089,0.8505936
		c-0.6992035,0.2041016-1.4561005,0.3096008-2.2812958,0.3096008c-1.0039063,0-1.9853058-0.1913986-2.9403992-0.5556946
		c-0.9580078-0.3711014-1.8090973-0.9014053-2.5619965-1.5889053c-0.7515106-0.6826019-1.3565063-1.5038986-1.8091125-2.4618988
		c-0.457489-0.9560013-0.6884918-2.032196-0.6884918-3.2294998v-0.0698013c0-1.1942978,0.2310028-2.2817001,0.6884918-3.2557983
		c0.4526062-0.9820023,1.0576019-1.8164978,1.8091125-2.5035019c0.7528992-0.6825943,1.6039886-1.2074966,2.5619965-1.578598
		c0.9550934-0.3724976,1.9364929-0.5493011,2.9403992-0.5493011c0.8251953,0,1.592804,0.0957031,2.2958984,0.3076019
		c0.7075958,0.2094803,1.3448029,0.4750977,1.914093,0.814003c0.5635071,0.3383942,1.074707,0.7352982,1.5298004,1.1893997
		c0.4575043,0.4550705,0.8598022,0.9218979,1.2098999,1.4033966v-3.3286972h1.6001129v14.0654984
		C220.773407,108.0966949,220.5664063,109.2167969,220.164093,110.1987991z M219.2675934,100.2460938
		c0-0.9593964-0.1947937-1.8309937-0.5878906-2.6122971c-0.3945007-0.7811966-0.9125977-1.453598-1.5536957-2.009697
		c-0.6431122-0.5508041-1.3814087-0.9804993-2.2080078-1.2720032c-0.8276978-0.2900009-1.6797028-0.435997-2.5507965-0.435997
		c-0.8726044,0-1.7001953,0.1459961-2.4882965,0.435997c-0.7861023,0.2915039-1.4730988,0.716301-2.0610046,1.2573013
		c-0.5879059,0.5429993-1.0507965,1.2026978-1.3907013,1.9756012c-0.3383026,0.772995-0.5028992,1.6483994-0.5028992,2.6304016
		v0.0565948c0,0.9400024,0.1743011,1.8022995,0.5220032,2.5830002c0.3500977,0.7813034,0.8182983,1.4570999,1.406189,2.0064011
		c0.5879059,0.555603,1.2749023,0.9916992,2.0615997,1.3086014c0.7832031,0.310997,1.5996094,0.4715958,2.4531097,0.4715958
		c0.8710938,0,1.7230988-0.1473999,2.5507965-0.4584961c0.8265991-0.3006973,1.5648956-0.7382202,2.2080078-1.2826996
		c0.641098-0.5625229,1.1591949-1.2220993,1.5536957-1.9951019c0.3930969-0.7728958,0.5878906-1.6317978,0.5878906-2.596199
		V100.2460938z"/>
	<path d="M237.2207031,109.4141006V86.5703964h1.6972961v22.8437042H237.2207031z"/>
	<path d="M258.2323914,109.4141006v-9.8877029c0-1.7207031-0.4550781-3.0917969-1.371582-4.1259995
		c-0.9096069-1.0351028-2.2158051-1.5537033-3.9160156-1.5537033c-0.8265991,0-1.5848999,0.1474991-2.281189,0.4356003
		c-0.6983032,0.2998047-1.3057098,0.7114029-1.8282013,1.2285004c-0.5243988,0.5233994-0.9335022,1.1440048-1.2279968,1.8764038
		c-0.2871094,0.728096-0.4375,1.5332947-0.4375,2.3969955v9.6299057h-1.5996094V92.7705002h1.5996094v3.1000977
		c0.5678864-0.9790039,1.3261871-1.8070984,2.2880859-2.4829025c0.9561005-0.6708984,2.1982117-1.0028992,3.717804-1.0028992
		c1.0454102,0,1.9804077,0.1685028,2.8099976,0.5009995c0.8213043,0.3348999,1.522995,0.8086014,2.1026154,1.4179993
		c0.5775757,0.6088028,1.0106812,1.3369064,1.3046875,2.1728058c0.2939148,0.8344955,0.4384155,1.7533951,0.4384155,2.7567978
		v10.1807022H258.2323914z"/>
	<path d="M272.7255859,87.0596008c-0.3730774-0.0679016-0.7729797-0.1006012-1.2104797-0.1006012
		c-2.2406921,0-3.3549194,1.4067993-3.3549194,4.2118759v1.5996246h5.805603v1.471199h-5.805603v15.1724014h-1.6049805V94.2416992
		h-2.4125977v-1.471199h2.4125977v-1.6318054c0-1.8056946,0.4375-3.2040939,1.3070984-4.1796951
		s2.0884094-1.4614029,3.6528015-1.4614029c0.5048828,0,0.9448853,0.028801,1.339386,0.0937042
		c0.3892212,0.0615768,0.7729187,0.1635742,1.1434937,0.2919998v1.505394
		C273.519989,87.2363968,273.093689,87.1231003,272.7255859,87.0596008z"/>
	<path d="M292.3887024,104.415596c-0.4243164,1.0502777-1.0253906,1.9765015-1.7984009,2.7768021
		c-0.7680054,0.8086014-1.6772156,1.4439011-2.7215881,1.9141006c-1.0445251,0.4667969-2.1875,0.7031021-3.4273071,0.7031021
		c-1.2348938,0-2.3778992-0.2363052-3.4086914-0.7031021c-1.0361023-0.4701996-1.9326172-1.0957031-2.6948242-1.876503
		c-0.7592773-0.7894974-1.352478-1.6977005-1.7738953-2.7431183c-0.4296875-1.0450058-0.6391907-2.1533813-0.6391907-3.326683
		v-0.0697937c0-1.1748047,0.2095032-2.280304,0.6391907-3.330101c0.4214172-1.0439987,1.0195007-1.9644241,1.7924194-2.7666016
		c0.7734985-0.8086014,1.6777954-1.4468231,2.7246704-1.9135971c1.0415039-0.4702225,2.1875-0.6953049,3.4248047-0.6953049
		c1.2426147,0,2.3803101,0.2250824,3.4135132,0.6953049c1.0307922,0.466774,1.9273071,1.0971985,2.6870117,1.8778992
		c0.764679,0.7812958,1.3579712,1.6968002,1.7822876,2.740799c0.4242859,1.0419998,0.6357117,2.1551971,0.6357117,3.328598
		v0.0630035C293.0244141,102.2665939,292.8129883,103.3784943,292.3887024,104.415596z M291.3280945,101.0904007
		c0-0.9951019-0.1766968-1.9317017-0.523407-2.8115997c-0.3486023-0.8754044-0.8374023-1.6352005-1.4624023-2.2900009
		c-0.6225891-0.6499252-1.3526001-1.153801-2.1957703-1.5249252c-0.8399048-0.3695755-1.7446289-0.5477753-2.7051086-0.5477753
		c-0.980011,0-1.8926086,0.1913986-2.7402039,0.5672989c-0.8374023,0.3774796-1.5625,0.8881989-2.1607056,1.5263977
		c-0.6009827,0.6371994-1.0737,1.3906021-1.4144897,2.2578049c-0.3379211,0.8666992-0.5072937,1.7870941-0.5072937,2.7612v0.0615997
		c0,0.9965973,0.1766968,1.9330978,0.531189,2.8085938c0.3461914,0.8798065,0.8345032,1.6445007,1.4551086,2.2954025
		c0.625,0.6464767,1.3578796,1.1572037,2.2006836,1.5262985c0.8344116,0.3663025,1.7391968,0.552803,2.7001953,0.552803
		c0.9878235,0,1.8999023-0.1865005,2.7373047-0.5703049c0.8427124-0.3793945,1.5678101-0.8896942,2.1635132-1.5283966
		c0.6036072-0.6390991,1.0733032-1.3880997,1.4116821-2.2547989c0.3408203-0.8672028,0.5097046-1.7875977,0.5097046-2.7598038
		V101.0904007z"/>
	<path d="M306.7666016,94.274498c-0.9634094,0-1.8706055,0.1816025-2.7427063,0.5394974
		c-0.8671875,0.3564987-1.6322937,0.8881989-2.2977905,1.592804c-0.6685181,0.7098999-1.194397,1.5820007-1.5888977,2.6128006
		c-0.3892212,1.0350952-0.5825195,2.2245941-0.5825195,3.5780945v6.8164063h-1.6049805V92.7705002h1.6049805v4.7319946
		c0.3271179-0.7359009,0.735321-1.4228973,1.2402039-2.056694c0.4937134-0.6318054,1.0655212-1.1713028,1.6963196-1.6156998
		c0.6308899-0.4424057,1.3233032-0.7807007,2.0717773-1.0112228c0.7461243-0.2300034,1.535614-0.327179,2.367218-0.307579v1.7631989
		H306.7666016z"/>
	<path d="M334.5697937,109.4141006v-9.8877029c0-1.8003006-0.4344788-3.205101-1.3070984-4.1952972
		c-0.8695984-0.9873047-2.074707-1.4844055-3.6206055-1.4844055c-0.695282,0-1.3661804,0.1294022-2.007782,0.3950043
		c-0.6411133,0.2593002-1.199707,0.6420975-1.6773071,1.1376953c-0.4804077,0.4994812-0.8617859,1.1202011-1.1430054,1.8442993
		c-0.2822876,0.7275009-0.4213867,1.5639038-0.4213867,2.4990005v9.6914063h-1.6000977v-9.9863052
		c0-1.7406998-0.4400024-3.1064987-1.3070984-4.0966949c-0.8721008-0.9873047-2.0557251-1.4844055-3.5562134-1.4844055
		c-0.7406921,0-1.4354858,0.153801-2.0907898,0.4570999c-0.6494141,0.3027039-1.2212219,0.7275009-1.6963196,1.2797012
		c-0.477478,0.5332031-0.8559875,1.1669998-1.1269836,1.8897018c-0.2709961,0.7196808-0.4082031,1.4974976-0.4082031,2.3480988
		v9.592804h-1.6000977V92.7705002h1.6000977v2.9687958c0.2602844-0.4326019,0.5606079-0.8506012,0.8959961-1.2558975
		c0.3384094-0.4032974,0.7250977-0.7602005,1.1596985-1.0761032c0.4375-0.317421,0.9424133-0.567421,1.5195007-0.7519989
		c0.5741882-0.1846008,1.2319946-0.2705002,1.9750977-0.2705002c0.7167969,0,1.3745117,0.0938034,1.9756165,0.2865982
		c0.5956726,0.1963043,1.1244812,0.4556046,1.5780945,0.7862015c0.456604,0.3255997,0.8565063,0.7065048,1.1972961,1.141098
		c0.3330078,0.4326019,0.6195984,0.8945007,0.8612976,1.3706055c0.2632141-0.4585037,0.5772095-0.9009018,0.9472961-1.3355026
		c0.3652039-0.4375,0.7998047-0.8275986,1.2915039-1.1601028c0.4829102-0.3320999,1.0386047-0.6059952,1.6611023-0.8022995
		c0.6202087-0.1927948,1.3233032-0.2865982,2.1040039-0.2865982c0.9824829,0,1.8657837,0.1685028,2.6601868,0.5009995
		c0.7944031,0.3348999,1.467804,0.8003006,2.023407,1.3964996c0.5585938,0.6063995,0.9825134,1.3339996,1.2724915,2.1943054
		c0.297821,0.857399,0.4399109,1.8100967,0.4399109,2.8505936v10.0869064H334.5697937z"/>
	<path d="M353.4702148,109.4141006v-2.7725067c-0.2812195,0.387207-0.6279297,0.7792816-1.0307007,1.15728
		c-0.4024048,0.3789215-0.8638,0.719223-1.3848267,1.014122c-0.5234985,0.2935028-1.1192017,0.5317993-1.782196,0.7198029
		c-0.6601868,0.1781998-1.3847961,0.2768021-2.1684875,0.2768021s-1.5566101-0.1133041-2.3188171-0.3257294
		c-0.7622986-0.2220764-1.4438782-0.5526733-2.0532837-0.9818726c-0.6118164-0.4311981-1.105896-0.985405-1.484314-1.6288986
		c-0.3808899-0.6576996-0.5742798-1.4155045-0.5742798-2.2905045v-0.0615997c0-0.8666992,0.1796875-1.6449966,0.5366821-2.3188019
		c0.3623047-0.6708984,0.855896-1.2431946,1.4897156-1.6983185c0.6278992-0.4588776,1.3930969-0.8021774,2.2865906-1.0390015
		c0.8911133-0.2445755,1.8789063-0.3627777,2.9682922-0.3627777c1.1704102,0,2.1820984,0.0649033,3.0332031,0.1957779
		c0.848114,0.129921,1.6748047,0.3096237,2.4824219,0.5234222v-0.7114182c0-1.6898804-0.4883118-2.9574814-1.4541016-3.8002777
		c-0.9663086-0.845726-2.3140259-1.2637253-4.0346985-1.2637253c-1.0195007,0-1.9565125,0.1182251-2.8017273,0.3726196
		c-0.848175,0.2495041-1.6532898,0.5752029-2.4184875,0.9608994l-0.5878906-1.4032974
		c0.9155884-0.4458008,1.8388977-0.8003006,2.7753906-1.0663986c0.936615-0.2670975,1.9780884-0.3983994,3.1376953-0.3983994
		c2.1499023,0,3.8461914,0.5410004,5.0888977,1.6283951c1.2427063,1.0923004,1.8574219,2.7211838,1.8574219,4.9009018v10.3735046
		H353.4702148z M353.5,101.2846985c-0.6978149-0.171402-1.5083008-0.3418198-2.4453125-0.5024033
		c-0.9394836-0.158699-2.0019836-0.2461014-3.1991882-0.2461014c-1.7632141,0-3.1216125,0.3535004-4.0635071,1.0566025
		c-0.9447937,0.7030792-1.4169922,1.6397018-1.4169922,2.8130035v0.0648956c0,0.6064987,0.1264954,1.142601,0.3862,1.6074982
		c0.2685852,0.4643021,0.6200867,0.8646851,1.0606079,1.1840057c0.4476929,0.324295,0.9633789,0.5766754,1.551178,0.7485962
		c0.5879211,0.1767044,1.1944275,0.2627029,1.8277283,0.2627029c0.8480835,0,1.6532898-0.125,2.418396-0.3775024
		c0.756897-0.2464981,1.4306946-0.5965958,2.0073853-1.0355988c0.574707-0.4492035,1.0307007-0.9779968,1.3691101-1.6118011
		c0.3354797-0.6304016,0.5043945-1.3158951,0.5043945-2.0805969V101.2846985z"/>
	<path d="M367.5830078,109.5615997c-0.429718,0.1004944-0.9048157,0.1493988-1.4223938,0.1493988
		c-0.6499023,0-1.2670288-0.0859985-1.8252258-0.2641983c-0.5716858-0.1719284-1.0653992-0.4536057-1.4896851-0.8315048
		c-0.4243164-0.3759995-0.7568054-0.8588943-0.9960938-1.4340973c-0.2388-0.578598-0.3569031-1.2583237-0.3569031-2.0425034
		V94.2416992h-2.4179993v-1.471199h2.4179993v-5.3188019h1.5995789v5.3188019h5.8379211v1.471199h-5.8379211v10.7055969
		c0,1.1977997,0.3086243,2.0332031,0.9292297,2.5141983c0.6195984,0.4765015,1.4222717,0.716301,2.3964844,0.716301
		c0.4160156,0,0.8022156-0.0371017,1.175293-0.1231003c0.3706055-0.0892944,0.7944031-0.2285004,1.2729187-0.4325943v1.5004959
		C368.4335938,109.3188782,368.0043945,109.4628754,367.5830078,109.5615997z"/>
	<path d="M373.699707,88.4272995v-2.1860046h1.9857788v2.1860046H373.699707z M373.8930969,109.4141006V92.7705002h1.5990906
		v16.6436005H373.8930969z"/>
	<path d="M397.1146851,104.415596c-0.4242859,1.0502777-1.0228882,1.9765015-1.7958984,2.7768021
		c-0.7728882,0.8086014-1.6800842,1.4439011-2.7269897,1.9141006c-1.0409851,0.4667969-2.1870117,0.7031021-3.4242859,0.7031021
		c-1.2373047,0-2.378418-0.2363052-3.4087219-0.7031021c-1.0361023-0.4701996-1.9379883-1.0957031-2.6918945-1.876503
		c-0.7626953-0.7894974-1.3529968-1.6977005-1.776886-2.7431183c-0.4326172-1.0450058-0.6416016-2.1533813-0.6416016-3.326683
		v-0.0697937c0-1.1748047,0.2089844-2.280304,0.6416016-3.330101c0.4238892-1.0439987,1.0195923-1.9644241,1.7924805-2.7666016
		c0.7730103-0.8086014,1.6778259-1.4468231,2.7246094-1.9135971c1.0415039-0.4702225,2.1875-0.6953049,3.4219055-0.6953049
		c1.2402039,0,2.3833008,0.2250824,3.4169922,0.6953049c1.0278015,0.466774,1.9268188,1.0971985,2.6889954,1.8778992
		c0.7597046,0.7812958,1.3554077,1.6968002,1.7796936,2.740799c0.4239197,1.0419998,0.6358032,2.1551971,0.6358032,3.328598
		v0.0630035C397.7504883,102.2665939,397.5386047,103.3784943,397.1146851,104.415596z M396.0487976,101.0904007
		c0-0.9951019-0.1713867-1.9317017-0.5205078-2.8115997c-0.3515015-0.8754044-0.8348999-1.6352005-1.4598999-2.2900009
		c-0.6201782-0.6499252-1.3526001-1.153801-2.1954041-1.5249252c-0.8426819-0.3695755-1.7445984-0.5477753-2.7054749-0.5477753
		c-0.9824219,0-1.8950195,0.1913986-2.7378235,0.5672989c-0.8398743,0.3774796-1.5619812,0.8881989-2.1684875,1.5263977
		c-0.5961914,0.6371994-1.0682983,1.3906021-1.4090881,2.2578049c-0.3384094,0.8666992-0.5049133,1.7870941-0.5049133,2.7612
		v0.0615997c0,0.9965973,0.1748047,1.9330978,0.5263062,2.8085938c0.3491821,0.8798065,0.8374023,1.6445007,1.4575806,2.2954025
		c0.6254272,0.6464767,1.3579102,1.1572037,2.2006226,1.5262985c0.8349915,0.3663025,1.7392883,0.552803,2.6972961,0.552803
		c0.9853821,0,1.9003906-0.1865005,2.7431946-0.5703049c0.8427124-0.3793945,1.5620117-0.8896942,2.160614-1.5283966
		c0.6064758-0.6390991,1.0708008-1.3880997,1.4115906-2.2547989c0.3355103-0.8672028,0.5043945-1.7875977,0.5043945-2.7598038
		V101.0904007z"/>
	<path d="M415.3417969,109.4141006v-9.8877029c0-1.7207031-0.4564819-3.0917969-1.3745117-4.1259995
		c-0.9096985-1.0351028-2.2167969-1.5537033-3.9130859-1.5537033c-0.8266907,0-1.5834961,0.1474991-2.2842102,0.4356003
		c-0.6976929,0.2998047-1.3070984,0.7114029-1.8280945,1.2285004c-0.523407,0.5233994-0.9335938,1.1440048-1.2261047,1.8764038
		c-0.2870789,0.728096-0.4403992,1.5332947-0.4403992,2.3969955v9.6299057h-1.5971985V92.7705002h1.5971985v3.1000977
		c0.5693054-0.9790039,1.3286133-1.8070984,2.2920227-2.4829025c0.9530945-0.6708984,2.1958008-1.0028992,3.7147827-1.0028992
		c1.0464172,0,1.9833984,0.1685028,2.8100891,0.5009995c0.8213196,0.3348999,1.5244141,0.8086014,2.1045227,1.4179993
		c0.5741882,0.6088028,1.0116882,1.3369064,1.3041992,2.1728058c0.2948914,0.8344955,0.4403992,1.7533951,0.4403992,2.7567978
		v10.1807022H415.3417969z"/>
</g>
</svg>
