<?xml version="1.0" encoding="utf-8"?>
<!-- Generator: Adobe Illustrator 17.0.0, SVG Export Plug-In . SVG Version: 6.00 Build 0)  -->
<!DOCTYPE svg PUBLIC "-//W3C//DTD SVG 1.1//EN" "http://www.w3.org/Graphics/SVG/1.1/DTD/svg11.dtd">
<svg version="1.1" id="Layer_1" xmlns="http://www.w3.org/2000/svg" xmlns:xlink="http://www.w3.org/1999/xlink" x="0px" y="0px"
	 width="960px" height="560px" viewBox="0 0 960 560" enable-background="new 0 0 960 560" xml:space="preserve">
<path fill="#1584C7" d="M248.512,250.661l31.436-37.346h11.694v75.573h-8.551v-65.891l-34.58,41.119l-34.454-41.119v66.016h-8.551
	v-75.699h11.694L248.512,250.661z"/>
<path fill="#1584C7" d="M303.086,288.887v-75.573h8.551v75.573H303.086z"/>
<path fill="#1584C7" d="M393.12,279.331v-66.016h8.551v75.573h-11.694l-55.454-65.891v66.016h-8.551v-75.699h11.694L393.12,279.331z
	"/>
<path fill="#1584C7" d="M482.651,213.314v8.551h-60.484v25.023h48.664v8.676h-48.664v25.023h60.484v8.551h-69.034v-75.825H482.651z"
	/>
<path fill="#1584C7" d="M569.415,226.014v22.131c0,3.521-1.257,6.413-3.647,8.928c-2.515,2.515-5.407,3.647-8.928,3.647h-11.569
	l23.766,28.167h-11.191l-23.64-28.167h-27.664c-0.629,0-2.012-0.126-4.15-0.377v28.544h-8.551V213.44h62.999
	c3.521,0,6.413,1.257,8.928,3.647C568.158,219.601,569.415,222.494,569.415,226.014z M506.417,252.169h50.424
	c1.132,0,2.012-0.377,2.766-1.132c0.754-0.754,1.132-1.76,1.132-2.892v-22.131c0-1.132-0.377-2.138-1.132-2.892
	s-1.76-1.257-2.766-1.257h-50.424c-1.132,0-2.138,0.377-2.892,1.257c-0.754,0.754-1.257,1.76-1.257,2.892v22.131
	c0,1.132,0.377,2.012,1.257,2.892C504.279,251.792,505.285,252.169,506.417,252.169z"/>
<path fill="#1584C7" d="M624.995,280.588l38.604-67.274h9.934l-43.508,75.573h-9.808l-43.885-75.573h9.934L624.995,280.588z"/>
<path fill="#1584C7" d="M692.772,213.314h50.424c3.521,0,6.413,1.257,8.928,3.647c2.389,2.389,3.647,5.407,3.647,8.928v62.999
	h-8.551v-27.538h-58.598v27.664h-8.551v-63.124c0-3.521,1.257-6.539,3.647-8.928C686.233,214.572,689.251,213.314,692.772,213.314z
	 M688.622,252.798h58.598v-26.91c0-1.132-0.377-2.138-1.257-2.892c-0.755-0.754-1.76-1.257-2.892-1.257h-50.424
	c-1.132,0-2.138,0.377-2.892,1.257c-0.755,0.754-1.257,1.76-1.257,2.892v26.91H688.622z"/>
<g>
	<path fill="#010202" d="M271.021,335.665c-0.503,1.006-1.132,1.76-2.012,2.515c-0.88,0.629-1.886,1.257-3.018,1.635
		s-2.389,0.629-3.898,0.629c-2.263,0-4.401-0.377-6.162-1.132c-1.886-0.754-3.647-1.886-5.407-3.395l1.383-1.635
		c0.754,0.754,1.635,1.383,2.389,1.886c0.754,0.503,1.635,1.006,2.389,1.257c0.88,0.377,1.635,0.629,2.641,0.754
		c0.88,0.126,1.886,0.251,2.892,0.251c1.006,0,2.012-0.126,3.018-0.377c0.88-0.251,1.635-0.629,2.263-1.132
		c0.629-0.503,1.132-1.132,1.509-1.76c0.377-0.754,0.503-1.509,0.503-2.263v-0.126c0-0.754-0.126-1.509-0.377-2.012
		c-0.251-0.629-0.629-1.132-1.257-1.635c-0.629-0.503-1.509-0.88-2.515-1.383c-1.006-0.377-2.389-0.754-4.024-1.132
		c-1.76-0.377-3.144-0.754-4.401-1.257c-1.257-0.503-2.263-1.006-3.018-1.635c-0.754-0.629-1.383-1.383-1.76-2.263
		c-0.377-0.88-0.503-1.886-0.503-2.892v-0.126c0-1.132,0.251-2.012,0.754-3.018c0.503-0.88,1.132-1.76,1.886-2.389
		c0.88-0.629,1.76-1.257,2.892-1.635c1.132-0.377,2.389-0.629,3.647-0.629c2.012,0,3.898,0.251,5.407,0.88
		c1.509,0.629,3.018,1.509,4.401,2.641l-1.383,1.635c-1.383-1.132-2.766-2.012-4.15-2.515c-1.383-0.503-2.892-0.754-4.401-0.754
		c-1.006,0-2.012,0.126-2.892,0.377s-1.635,0.629-2.263,1.132c-0.629,0.503-1.132,1.006-1.383,1.76
		c-0.377,0.629-0.503,1.383-0.503,2.138v0.126c0,0.754,0.126,1.509,0.377,2.012c0.251,0.629,0.629,1.132,1.257,1.635
		s1.509,1.006,2.515,1.383c1.132,0.377,2.515,0.754,4.15,1.132c3.395,0.629,5.784,1.635,7.168,2.892
		c1.509,1.257,2.263,2.892,2.263,5.03v0.126C271.775,333.653,271.524,334.784,271.021,335.665z"/>
	<path fill="#010202" d="M278.44,313.533v-2.766h2.515v2.766H278.44z M278.566,339.94v-20.874h2.012v20.874H278.566z"/>
	<path fill="#010202" d="M318.176,339.94v-12.449c0-2.263-0.503-4.024-1.635-5.281c-1.132-1.257-2.641-1.886-4.527-1.886
		c-0.88,0-1.76,0.126-2.515,0.503c-0.754,0.377-1.509,0.754-2.138,1.383c-0.629,0.629-1.132,1.383-1.383,2.263
		c-0.377,0.88-0.503,2.012-0.503,3.144v12.197h-2.012V327.24c0-2.138-0.503-3.898-1.635-5.156s-2.641-1.886-4.527-1.886
		c-0.88,0-1.76,0.251-2.641,0.629c-0.88,0.377-1.509,0.88-2.138,1.635c-0.629,0.629-1.132,1.509-1.383,2.389
		c-0.377,0.88-0.503,1.886-0.503,2.892v12.072h-2.012v-20.748h1.886v3.772c0.377-0.503,0.754-1.132,1.132-1.635
		c0.377-0.503,0.88-1.006,1.509-1.383c0.503-0.377,1.132-0.754,1.886-1.006c0.754-0.251,1.509-0.377,2.515-0.377
		c0.88,0,1.76,0.126,2.515,0.377c0.754,0.251,1.383,0.629,2.012,1.006c0.629,0.377,1.132,0.88,1.509,1.383
		c0.377,0.503,0.754,1.132,1.132,1.76c0.377-0.629,0.754-1.132,1.132-1.635c0.503-0.503,1.006-1.006,1.635-1.509
		c0.629-0.377,1.257-0.754,2.138-1.006c0.754-0.251,1.635-0.377,2.641-0.377c1.257,0,2.389,0.251,3.395,0.629
		s1.886,1.006,2.515,1.76c0.754,0.754,1.257,1.635,1.635,2.766c0.377,1.132,0.503,2.263,0.503,3.647v12.7
		C320.313,339.94,318.176,339.94,318.176,339.94z"/>
	<path fill="#010202" d="M347.474,334.03c-0.629,1.383-1.383,2.515-2.263,3.395c-1.006,1.006-2.012,1.635-3.269,2.138
		s-2.515,0.754-3.647,0.754c-1.006,0-2.012-0.126-2.892-0.377s-1.635-0.629-2.389-1.132c-0.754-0.503-1.257-1.006-1.886-1.635
		c-0.503-0.629-1.006-1.257-1.509-1.886v11.066h-2.012v-27.287h2.012v4.653c0.503-0.629,1.006-1.383,1.509-2.012
		c0.629-0.629,1.257-1.132,1.886-1.635c0.754-0.503,1.509-0.88,2.389-1.132s1.76-0.377,2.892-0.377c1.257,0,2.515,0.251,3.647,0.754
		c1.257,0.503,2.263,1.257,3.269,2.138c1.006,0.88,1.76,2.012,2.263,3.395c0.629,1.383,0.88,2.892,0.88,4.527v0.126
		C348.355,331.138,348.103,332.772,347.474,334.03z M346.217,329.503c0-1.383-0.251-2.641-0.629-3.772
		c-0.503-1.132-1.006-2.012-1.76-2.892c-0.754-0.754-1.635-1.383-2.641-1.76c-1.006-0.377-2.012-0.629-3.144-0.629
		s-2.138,0.251-3.144,0.629s-1.886,1.006-2.766,1.886c-0.754,0.754-1.383,1.76-1.886,2.892s-0.754,2.263-0.754,3.647v0.126
		c0,1.383,0.251,2.515,0.754,3.647s1.132,2.012,1.886,2.766c0.754,0.754,1.76,1.383,2.766,1.886
		c1.006,0.377,2.138,0.629,3.144,0.629c1.132,0,2.263-0.251,3.269-0.629c1.006-0.377,1.886-1.006,2.641-1.76
		c0.754-0.754,1.383-1.76,1.76-2.766C346.091,332.27,346.217,331.012,346.217,329.503L346.217,329.503z"/>
	<path fill="#010202" d="M354.893,339.94v-29.927h2.012v29.927H354.893z"/>
	<path fill="#010202" d="M364.953,313.533v-2.766h2.515v2.766H364.953z M365.204,339.94v-20.874h2.012v20.874H365.204z"/>
	<path fill="#010202" d="M384.066,311.899c-0.503-0.126-1.006-0.126-1.509-0.126c-2.766,0-4.275,1.76-4.275,5.281v2.012h7.293v1.886
		h-7.293v19.113h-2.012v-19.239h-3.018v-1.886h3.018v-2.012c0-2.263,0.503-4.024,1.635-5.281s2.641-1.886,4.653-1.886
		c0.629,0,1.132,0,1.635,0.126c0.503,0.126,1.006,0.251,1.383,0.377v1.886C385.072,312.024,384.569,311.899,384.066,311.899z"/>
	<path fill="#010202" d="M399.533,340.694c-0.88,2.138-1.886,3.772-3.018,4.653c-1.132,0.88-2.389,1.383-3.898,1.383
		c-0.754,0-1.509-0.126-2.138-0.251c-0.629-0.126-1.257-0.377-2.012-0.629l0.754-1.76c0.503,0.251,1.132,0.503,1.635,0.629
		c0.503,0.126,1.132,0.126,2.012,0.126c0.503,0,1.006-0.126,1.509-0.251c0.503-0.126,0.88-0.503,1.257-0.88
		c0.377-0.377,0.754-0.88,1.132-1.509c0.377-0.629,0.754-1.383,1.132-2.263l-10.06-20.748h2.389l8.676,18.736l7.545-18.736h2.263
		L399.533,340.694z"/>
	<path fill="#010202" d="M414.12,313.533v-2.766h2.515v2.766H414.12z M414.371,339.94v-20.874h2.012v20.874H414.371z"/>
	<path fill="#010202" d="M440.275,339.94v-12.449c0-2.138-0.629-3.898-1.76-5.156c-1.132-1.257-2.766-2.012-4.904-2.012
		c-1.006,0-2.012,0.126-2.892,0.503c-0.88,0.377-1.635,0.88-2.263,1.509c-0.629,0.629-1.132,1.383-1.509,2.389
		c-0.377,0.88-0.503,1.886-0.503,3.018v12.072h-2.012v-20.748h2.012v3.898c0.754-1.257,1.635-2.263,2.892-3.144
		c1.257-0.88,2.766-1.257,4.653-1.257c1.257,0,2.515,0.251,3.521,0.629c1.006,0.377,1.886,1.006,2.641,1.76
		c0.754,0.754,1.257,1.635,1.635,2.766c0.377,1.006,0.503,2.263,0.503,3.521v12.826h-2.012V339.94z"/>
	<path fill="#010202" d="M468.19,340.946c-0.503,1.257-1.257,2.263-2.138,3.144s-2.012,1.509-3.269,1.886
		c-1.257,0.377-2.641,0.629-4.15,0.629c-3.521,0-6.79-1.132-9.682-3.269l1.132-1.635c2.515,2.012,5.407,3.018,8.425,3.018
		c1.257,0,2.263-0.126,3.269-0.503c1.006-0.377,1.886-0.88,2.641-1.509s1.257-1.509,1.76-2.515c0.377-1.006,0.629-2.138,0.629-3.521
		v-3.018c-0.503,0.629-1.006,1.257-1.509,1.886c-0.629,0.629-1.257,1.132-1.886,1.509c-0.754,0.503-1.509,0.754-2.389,1.132
		c-0.88,0.251-1.886,0.377-2.892,0.377c-1.257,0-2.515-0.251-3.647-0.754c-1.257-0.503-2.263-1.132-3.269-2.012
		c-1.006-0.88-1.76-1.886-2.263-3.144c-0.629-1.257-0.88-2.515-0.88-4.024v-0.126c0-1.509,0.251-2.892,0.88-4.15
		c0.629-1.257,1.383-2.263,2.263-3.144c1.006-0.88,2.012-1.509,3.269-2.012s2.389-0.629,3.647-0.629
		c1.006,0,2.012,0.126,2.892,0.377c0.88,0.251,1.635,0.629,2.389,1.006c0.754,0.377,1.383,0.88,1.886,1.509
		c0.629,0.629,1.132,1.132,1.509,1.76v-4.15h2.012v17.73C468.945,338.305,468.693,339.689,468.19,340.946z M467.058,328.371
		c0-1.257-0.251-2.263-0.754-3.269c-0.503-1.006-1.132-1.886-2.012-2.515c-0.754-0.754-1.76-1.257-2.766-1.635
		c-1.006-0.377-2.138-0.503-3.269-0.503s-2.138,0.126-3.144,0.503c-1.006,0.377-1.886,0.88-2.641,1.635
		c-0.754,0.629-1.383,1.509-1.76,2.515c-0.377,1.006-0.629,2.012-0.629,3.269v0.126c0,1.132,0.251,2.263,0.629,3.269
		c0.503,1.006,1.006,1.886,1.76,2.515c0.754,0.754,1.635,1.257,2.641,1.635c1.006,0.377,2.012,0.629,3.144,0.629
		c1.132,0,2.138-0.126,3.269-0.629c1.006-0.377,2.012-0.88,2.766-1.635c0.754-0.754,1.509-1.509,2.012-2.515
		C466.807,330.761,467.058,329.755,467.058,328.371L467.058,328.371z"/>
	<path fill="#010202" d="M489.567,339.94v-28.67h2.138v28.67H489.567z"/>
	<path fill="#010202" d="M515.974,339.94v-12.449c0-2.138-0.629-3.898-1.76-5.156c-1.132-1.257-2.766-2.012-4.904-2.012
		c-1.006,0-2.012,0.126-2.892,0.503c-0.88,0.377-1.635,0.88-2.263,1.509c-0.629,0.629-1.132,1.383-1.509,2.389
		c-0.377,0.88-0.503,1.886-0.503,3.018v12.072h-2.012v-20.748h2.012v3.898c0.754-1.257,1.635-2.263,2.892-3.144
		s2.766-1.257,4.653-1.257c1.257,0,2.515,0.251,3.521,0.629c1.006,0.377,1.886,1.006,2.641,1.76
		c0.755,0.754,1.257,1.635,1.635,2.766c0.377,1.006,0.503,2.263,0.503,3.521v12.826h-2.012V339.94z"/>
	<path fill="#010202" d="M534.207,311.899c-0.503-0.126-1.006-0.126-1.509-0.126c-2.766,0-4.275,1.76-4.275,5.281v2.012h7.293v1.886
		h-7.293v19.113h-2.012v-19.239h-3.018v-1.886h3.018v-2.012c0-2.263,0.503-4.024,1.635-5.281s2.641-1.886,4.653-1.886
		c0.629,0,1.132,0,1.635,0.126c0.503,0.126,1.006,0.251,1.383,0.377v1.886C535.213,312.024,534.71,311.899,534.207,311.899z"/>
	<path fill="#010202" d="M558.979,333.653c-0.503,1.383-1.257,2.515-2.263,3.521c-1.006,1.006-2.138,1.76-3.395,2.389
		c-1.258,0.629-2.766,0.88-4.275,0.88s-3.018-0.251-4.275-0.88s-2.389-1.383-3.395-2.389s-1.76-2.138-2.263-3.395
		c-0.503-1.257-0.754-2.766-0.754-4.15v-0.126c0-1.509,0.252-2.892,0.754-4.15c0.503-1.257,1.257-2.515,2.263-3.521
		c1.006-1.006,2.138-1.76,3.395-2.389c1.257-0.629,2.766-0.88,4.275-0.88c1.509,0,3.018,0.251,4.275,0.88
		c1.257,0.629,2.389,1.383,3.395,2.389c1.006,1.006,1.76,2.138,2.263,3.395c0.503,1.257,0.755,2.766,0.755,4.15v0.126
		C559.733,331.012,559.482,332.395,558.979,333.653z M557.595,329.503c0-1.257-0.252-2.389-0.629-3.521
		c-0.377-1.132-1.006-2.012-1.886-2.892c-0.754-0.754-1.76-1.509-2.766-1.886c-1.006-0.503-2.138-0.629-3.395-0.629
		s-2.389,0.251-3.395,0.754c-1.006,0.503-2.012,1.132-2.766,1.886c-0.754,0.754-1.383,1.76-1.76,2.892
		c-0.377,1.132-0.629,2.263-0.629,3.521v0.126c0,1.257,0.252,2.389,0.629,3.521c0.377,1.132,1.006,2.012,1.886,2.892
		c0.754,0.754,1.76,1.509,2.766,1.886c1.006,0.503,2.138,0.754,3.395,0.754c1.257,0,2.389-0.251,3.395-0.754
		c1.006-0.503,2.012-1.132,2.766-1.886c0.754-0.754,1.383-1.76,1.76-2.892C557.47,332.018,557.595,330.761,557.595,329.503
		L557.595,329.503z"/>
	<path fill="#010202" d="M577.086,320.952c-1.257,0-2.389,0.251-3.395,0.629c-1.132,0.503-2.012,1.132-2.892,2.012
		c-0.88,0.88-1.509,2.012-2.012,3.269c-0.503,1.257-0.754,2.766-0.754,4.527v8.551h-2.012v-20.874h2.012v5.91
		c0.377-0.88,0.88-1.76,1.509-2.641c0.629-0.754,1.383-1.509,2.138-2.012c0.755-0.503,1.635-1.006,2.641-1.257
		c0.88-0.251,1.886-0.377,3.018-0.377v2.263H577.086z"/>
	<path fill="#010202" d="M612.043,339.94v-12.449c0-2.263-0.503-4.024-1.635-5.281c-1.132-1.257-2.641-1.886-4.527-1.886
		c-0.88,0-1.76,0.126-2.515,0.503c-0.754,0.377-1.509,0.754-2.138,1.383c-0.629,0.629-1.132,1.383-1.383,2.263
		c-0.377,0.88-0.503,2.012-0.503,3.144v12.197h-2.012V327.24c0-2.138-0.503-3.898-1.635-5.156s-2.641-1.886-4.527-1.886
		c-0.88,0-1.76,0.251-2.641,0.629c-0.754,0.377-1.509,0.88-2.138,1.635c-0.629,0.629-1.132,1.509-1.383,2.389
		c-0.377,0.88-0.503,1.886-0.503,2.892v12.072h-2.012v-20.748h2.012v3.772c0.377-0.503,0.755-1.132,1.132-1.635
		c0.377-0.503,0.88-1.006,1.509-1.383c0.503-0.377,1.132-0.754,1.886-1.006c0.755-0.251,1.509-0.377,2.515-0.377
		c0.88,0,1.76,0.126,2.515,0.377c0.754,0.251,1.383,0.629,2.012,1.006c0.629,0.377,1.132,0.88,1.509,1.383
		c0.377,0.503,0.755,1.132,1.132,1.76c0.377-0.629,0.755-1.132,1.132-1.635c0.503-0.503,1.006-1.006,1.635-1.509
		c0.629-0.377,1.258-0.754,2.138-1.006c0.755-0.251,1.635-0.377,2.641-0.377c1.257,0,2.389,0.251,3.395,0.629
		s1.886,1.006,2.515,1.76c0.754,0.754,1.257,1.635,1.635,2.766c0.377,1.132,0.503,2.263,0.503,3.647v12.7
		C614.307,339.94,612.043,339.94,612.043,339.94z"/>
	<path fill="#010202" d="M635.809,339.94v-3.521c-0.377,0.503-0.754,1.006-1.257,1.509c-0.503,0.503-1.132,0.88-1.76,1.257
		c-0.629,0.377-1.383,0.629-2.263,0.88c-0.88,0.251-1.76,0.377-2.766,0.377c-1.006,0-2.012-0.126-2.892-0.377
		c-1.006-0.251-1.76-0.754-2.641-1.257c-0.754-0.503-1.383-1.257-1.886-2.012c-0.503-0.88-0.755-1.76-0.755-2.892v-0.126
		c0-1.132,0.252-2.012,0.629-2.892c0.503-0.88,1.132-1.509,1.886-2.138c0.754-0.629,1.76-1.006,2.892-1.257
		c1.132-0.251,2.389-0.503,3.772-0.503c1.509,0,2.766,0.126,3.772,0.251c1.006,0.126,2.138,0.377,3.144,0.629v-0.88
		c0-2.138-0.629-3.772-1.886-4.778c-1.258-1.006-2.892-1.635-5.03-1.635c-1.257,0-2.515,0.126-3.521,0.503
		c-1.006,0.251-2.138,0.754-3.018,1.257l-0.754-1.76c1.132-0.503,2.263-1.006,3.521-1.383c1.132-0.377,2.515-0.503,3.898-0.503
		c2.641,0,4.778,0.629,6.413,2.012c1.509,1.383,2.389,3.395,2.389,6.162v13.078H635.809L635.809,339.94z M635.809,329.755
		c-0.88-0.251-1.886-0.377-3.018-0.629s-2.515-0.251-4.024-0.251c-2.263,0-3.898,0.503-5.156,1.383
		c-1.132,0.88-1.76,2.012-1.76,3.521v0.126c0,0.754,0.126,1.383,0.503,2.012c0.377,0.629,0.754,1.132,1.383,1.509
		c0.503,0.377,1.257,0.754,2.012,0.88c0.754,0.251,1.509,0.377,2.263,0.377c1.006,0,2.138-0.126,3.018-0.503
		c1.006-0.251,1.76-0.754,2.515-1.257c0.754-0.503,1.257-1.257,1.76-2.012c0.377-0.754,0.629-1.635,0.629-2.641v-2.515H635.809z"/>
	<path fill="#010202" d="M653.539,340.191c-0.503,0.126-1.132,0.126-1.76,0.126c-0.754,0-1.635-0.126-2.263-0.377
		c-0.754-0.251-1.383-0.629-1.886-1.006c-0.503-0.503-1.006-1.132-1.257-1.76c-0.252-0.754-0.503-1.635-0.503-2.515v-13.832h-3.018
		v-1.886h3.018v-6.665h2.012v6.665h7.293v1.886h-7.293v13.455c0,1.509,0.377,2.515,1.132,3.144c0.754,0.629,1.76,0.88,3.018,0.88
		c0.503,0,1.006,0,1.509-0.126c0.503-0.126,1.006-0.251,1.635-0.503v1.886C654.545,339.814,654.042,340.066,653.539,340.191z"/>
	<path fill="#010202" d="M661.21,313.533v-2.766h2.515v2.766H661.21z M661.461,339.94v-20.874h2.012v20.874H661.461z"/>
	<path fill="#010202" d="M690.634,333.653c-0.503,1.383-1.257,2.515-2.263,3.521c-1.006,1.006-2.138,1.76-3.395,2.389
		s-2.766,0.88-4.275,0.88s-3.018-0.251-4.275-0.88s-2.389-1.383-3.395-2.389s-1.76-2.138-2.263-3.395
		c-0.503-1.257-0.755-2.766-0.755-4.15v-0.126c0-1.509,0.252-2.892,0.755-4.15s1.257-2.515,2.263-3.521
		c1.006-1.006,2.138-1.76,3.395-2.389c1.257-0.629,2.766-0.88,4.275-0.88c1.509,0,3.018,0.251,4.275,0.88
		c1.257,0.629,2.389,1.383,3.395,2.389c1.006,1.006,1.76,2.138,2.263,3.395c0.503,1.257,0.754,2.766,0.754,4.15v0.126
		C691.514,331.012,691.137,332.395,690.634,333.653z M689.377,329.503c0-1.257-0.252-2.389-0.629-3.521
		c-0.503-1.132-1.006-2.012-1.886-2.892c-0.754-0.754-1.76-1.509-2.766-1.886c-1.006-0.503-2.138-0.629-3.395-0.629
		s-2.389,0.251-3.395,0.754c-1.006,0.503-2.012,1.132-2.766,1.886c-0.754,0.754-1.383,1.76-1.76,2.892
		c-0.377,1.132-0.629,2.263-0.629,3.521v0.126c0,1.257,0.252,2.389,0.629,3.521c0.377,1.132,1.006,2.012,1.886,2.892
		c0.754,0.754,1.76,1.509,2.766,1.886c1.006,0.503,2.138,0.754,3.395,0.754c1.257,0,2.389-0.251,3.395-0.754
		c1.006-0.503,2.012-1.132,2.766-1.886c0.754-0.754,1.383-1.76,1.76-2.892C689.125,332.018,689.377,330.761,689.377,329.503
		L689.377,329.503z"/>
	<path fill="#010202" d="M713.52,339.94v-12.449c0-2.138-0.629-3.898-1.76-5.156c-1.132-1.257-2.766-2.012-4.904-2.012
		c-1.006,0-2.012,0.126-2.892,0.503c-0.88,0.377-1.635,0.88-2.263,1.509c-0.629,0.629-1.132,1.383-1.509,2.389
		c-0.377,0.88-0.503,1.886-0.503,3.018v12.072h-2.012v-20.748h2.012v3.898c0.754-1.257,1.635-2.263,2.892-3.144
		c1.257-0.88,2.766-1.257,4.653-1.257c1.257,0,2.515,0.251,3.521,0.629c1.006,0.377,1.886,1.006,2.641,1.76
		c0.755,0.754,1.258,1.635,1.635,2.766c0.377,1.006,0.503,2.263,0.503,3.521v12.826h-2.012V339.94z"/>
</g>
</svg>
