<?xml version="1.0" encoding="iso-8859-1"?>
<!-- Generator: Adobe Illustrator 18.1.1, SVG Export Plug-In . SVG Version: 6.00 Build 0)  -->
<svg version="1.1" id="Capa_1" xmlns="http://www.w3.org/2000/svg" xmlns:xlink="http://www.w3.org/1999/xlink" x="0px" y="0px"
	 viewBox="0 0 30.718 30.72" style="enable-background:new 0 0 30.718 30.72;" xml:space="preserve">
<g>
	<path style="fill-rule:evenodd;clip-rule:evenodd;fill:#050008;" d="M17.36,10.4c0-1.923-0.779-3.664-2.036-4.921l-0.001-0.001
		l-0.001,0.001c-1.259-1.259-3-2.039-4.921-2.039c-1.923,0-3.664,0.779-4.923,2.037c-1.258,1.259-2.037,3-2.037,4.923
		c0,1.922,0.78,3.662,2.038,4.921c1.259,1.259,3,2.039,4.922,2.039c1.921,0,3.662-0.779,4.921-2.039l0.024-0.022
		C16.59,14.045,17.36,12.312,17.36,10.4L17.36,10.4z M15.999,4.801c1.434,1.434,2.321,3.414,2.321,5.599
		c0,2.171-0.876,4.14-2.293,5.571L16,16c-1.433,1.433-3.413,2.32-5.6,2.32S6.232,17.433,4.8,16S2.48,12.587,2.48,10.4
		c0-2.186,0.887-4.166,2.319-5.598L4.802,4.8C6.234,3.368,8.215,2.48,10.4,2.48c2.187,0,4.167,0.887,5.6,2.32L15.999,4.801z"/>
	<path style="fill-rule:evenodd;clip-rule:evenodd;fill:#050008;" d="M19.359,15.684c-0.134,0.227-0.429,0.303-0.656,0.168
		c-0.227-0.134-0.303-0.429-0.168-0.656c1.08-1.83,1.49-3.948,1.231-5.995c-0.254-2-1.152-3.937-2.691-5.477
		C15.232,1.882,12.815,0.96,10.4,0.96c-2.417,0-4.834,0.921-6.674,2.763L3.724,3.724l0.001,0.001C1.882,5.568,0.96,7.985,0.96,10.4
		s0.922,4.832,2.765,6.675c1.843,1.843,4.259,2.765,6.674,2.765c2.417,0,4.834-0.922,6.677-2.765
		c0.187-0.186,0.491-0.185,0.677,0.002c0.186,0.187,0.185,0.491-0.002,0.677c-2.031,2.03-4.692,3.046-7.352,3.046
		c-2.661,0-5.324-1.017-7.354-3.046C1.015,15.724,0,13.061,0,10.4s1.015-5.324,3.046-7.354l0.001,0.001C5.078,1.016,7.74,0,10.4,0
		c2.661,0,5.323,1.015,7.354,3.046c1.692,1.692,2.681,3.827,2.961,6.036C21.001,11.337,20.549,13.669,19.359,15.684z"/>
	<path style="fill-rule:evenodd;clip-rule:evenodd;fill:#050008;" d="M10.4,4.96c0.265,0,0.48,0.215,0.48,0.48
		c0,0.265-0.215,0.48-0.48,0.48c-0.312,0-0.611,0.031-0.894,0.087c-0.295,0.06-0.581,0.149-0.852,0.264
		c-0.26,0.11-0.514,0.249-0.756,0.412L7.875,6.698C7.649,6.851,7.433,7.032,7.232,7.233C6.825,7.641,6.495,8.124,6.27,8.655
		C6.156,8.926,6.067,9.212,6.007,9.507C5.951,9.789,5.92,10.088,5.92,10.4c0,0.265-0.215,0.48-0.48,0.48
		c-0.265,0-0.48-0.215-0.48-0.48c0-0.363,0.039-0.725,0.109-1.08c0.072-0.359,0.181-0.706,0.32-1.036
		C5.666,7.63,6.065,7.042,6.553,6.554C6.787,6.32,7.05,6.102,7.334,5.908l0.028-0.02C7.647,5.696,7.956,5.529,8.284,5.39
		C8.613,5.251,8.96,5.142,9.32,5.069C9.675,4.999,10.037,4.96,10.4,4.96z"/>
	<path style="fill-rule:evenodd;clip-rule:evenodd;fill:#050008;" d="M17.075,17.754c-0.187-0.187-0.187-0.492,0-0.679
		c0.187-0.187,0.492-0.187,0.679,0l2.738,2.738c0.187,0.187,0.187,0.492,0,0.679c-0.187,0.187-0.492,0.187-0.679,0L17.075,17.754z"
		/>
	<path style="fill-rule:evenodd;clip-rule:evenodd;fill:#050008;" d="M19.892,19.894L19.892,19.894
		c0.335-0.335,0.776-0.502,1.216-0.502c0.439,0,0.879,0.167,1.214,0.502l0.001,0.001l0.001-0.001l0.001,0.001l2.63,2.63l2.63,2.631
		l2.63,2.631l0.001,0c0.335,0.334,0.502,0.776,0.502,1.215c0,0.439-0.167,0.879-0.502,1.214l-0.001,0.001l0.001,0.001l-0.001,0.001
		l-0.001,0c-0.334,0.335-0.776,0.502-1.216,0.502c-0.44,0-0.881-0.167-1.215-0.502l-0.001,0l-2.631-2.631l-2.631-2.63l-2.63-2.63
		l-0.001-0.001c-0.334-0.335-0.502-0.776-0.502-1.216C19.389,20.67,19.557,20.229,19.892,19.894L19.892,19.894L19.892,19.894z
		 M20.572,20.573L20.572,20.573l-0.001,0.001c-0.147,0.147-0.221,0.342-0.221,0.536c0,0.194,0.074,0.39,0.221,0.537l0.001,0.001
		l2.63,2.63l2.63,2.631l2.63,2.631l0.001,0c0.147,0.147,0.342,0.221,0.536,0.221c0.194,0,0.39-0.074,0.537-0.221l0,0l0.001-0.001
		l0.001,0.001c0.146-0.147,0.219-0.341,0.219-0.538c0-0.194-0.074-0.389-0.22-0.536l-0.001-0.001l-2.63-2.631l-2.631-2.631
		l-2.63-2.63l0-0.001l0.001-0.001c-0.147-0.146-0.341-0.219-0.538-0.219C20.913,20.352,20.718,20.426,20.572,20.573z"/>
</g>
<g>
</g>
<g>
</g>
<g>
</g>
<g>
</g>
<g>
</g>
<g>
</g>
<g>
</g>
<g>
</g>
<g>
</g>
<g>
</g>
<g>
</g>
<g>
</g>
<g>
</g>
<g>
</g>
<g>
</g>
</svg>
