<?xml version="1.0" encoding="utf-8"?>
<!-- Generator: Adobe Illustrator 18.0.0, SVG Export Plug-In . SVG Version: 6.00 Build 0)  -->
<!DOCTYPE svg PUBLIC "-//W3C//DTD SVG 1.1//EN" "http://www.w3.org/Graphics/SVG/1.1/DTD/svg11.dtd">
<svg version="1.1" id="Layer_1" xmlns="http://www.w3.org/2000/svg" xmlns:xlink="http://www.w3.org/1999/xlink" x="0px" y="0px"
	 viewBox="0 0 612 792" enable-background="new 0 0 612 792" xml:space="preserve">
<g>
	<path d="M240.4,545.2c-63,0-124.6-24.7-170.2-70.3C24.9,429.6,0,369.4,0,305.3S24.9,181,70.2,135.8
		c45.3-45.3,105.5-70.2,169.6-70.2s124.3,24.9,169.6,70.2c45.3,45.3,70.2,105.5,70.2,169.6c0,64.1-24.9,124.3-70.2,169.6
		c-2.2,2.2-5.7,2.2-7.8,0c-2.2-2.2-2.2-5.7,0-7.8c43.2-43.2,67-100.6,67-161.8s-23.8-118.6-67-161.8c-43.2-43.2-100.6-67-161.8-67
		s-118.6,23.8-161.8,67c-89.2,89.2-89.2,234.3,0,323.5c58.4,58.4,144.1,80.9,223.8,58.7c2.9-0.8,6,0.9,6.8,3.8
		c0.8,2.9-0.9,6-3.8,6.8C283.6,542.4,261.9,545.2,240.4,545.2z"/>
	<path d="M557,726.4c-1.4,0-2.8-0.5-3.9-1.6L401.5,573.2c-29.3-29.3-29.3-76.9,0-106.1c2.2-2.2,5.7-2.2,7.8,0c2.2,2.2,2.2,5.7,0,7.8
		c-25,25-25,65.6,0,90.5L557,713.1l41.7-41.7L457.9,530.7c-2.2-2.2-2.2-5.7,0-7.8c2.2-2.2,5.7-2.2,7.8,0l144.7,144.7
		c2.2,2.2,2.2,5.7,0,7.8l-49.5,49.5C559.8,725.9,558.4,726.4,557,726.4z"/>
</g>
</svg>
