<?xml version="1.0" encoding="utf-8"?>
<!-- Generator: Adobe Illustrator 16.0.0, SVG Export Plug-In . SVG Version: 6.00 Build 0)  -->
<!DOCTYPE svg PUBLIC "-//W3C//DTD SVG 1.1//EN" "http://www.w3.org/Graphics/SVG/1.1/DTD/svg11.dtd">
<svg version="1.1" xmlns="http://www.w3.org/2000/svg" xmlns:xlink="http://www.w3.org/1999/xlink" x="0px" y="0px" width="50px"
	 height="50px" viewBox="0 0 50 50" enable-background="new 0 0 50 50" xml:space="preserve">
<g id="Layer_2" display="none">
	
		<rect x="5" y="5" display="inline" fill="none" stroke="#000000" stroke-width="0.25" stroke-linecap="round" stroke-linejoin="round" stroke-miterlimit="10" width="40" height="40"/>
</g>
<g id="Layer_1">
	<g>
		<path d="M19.067,17.437l-2.859-2.702c0.333-0.605,0.539-1.29,0.539-2.029c0-2.342-1.897-4.239-4.24-4.239
			s-4.243,1.896-4.243,4.239c0,2.343,1.9,4.241,4.243,4.241c0.826,0,1.59-0.246,2.242-0.654l2.855,2.699
			C18.036,18.422,18.523,17.899,19.067,17.437z"/>
		<path d="M31.16,17.099l3.799-6.393c0.374,0.107,0.761,0.184,1.169,0.184c2.347,0,4.244-1.898,4.244-4.241
			c0-2.342-1.897-4.239-4.244-4.239c-2.343,0-4.239,1.896-4.239,4.239c0,1.163,0.469,2.214,1.226,2.981l-3.787,6.375
			C29.981,16.301,30.594,16.669,31.16,17.099z"/>
		<path d="M44.261,22.451c-1.824,0-3.368,1.159-3.967,2.776l-5.279-0.521c0.001,0.04,0.006,0.078,0.006,0.117
			c0,0.689-0.075,1.361-0.212,2.009l5.276,0.521c0.319,2.025,2.061,3.576,4.176,3.576c2.342,0,4.239-1.896,4.239-4.238
			C48.5,24.349,46.603,22.451,44.261,22.451z"/>
		<path d="M29.697,39.123l-1.18-5.156c-0.665,0.232-1.359,0.398-2.081,0.481l1.181,5.157c-1.356,0.709-2.29,2.111-2.29,3.746
			c0,2.342,1.896,4.238,4.243,4.238c2.342,0,4.239-1.896,4.239-4.238C33.81,41.053,31.979,39.191,29.697,39.123z"/>
		<path d="M15.857,26.869l-6.57,2.201c-0.758-1.158-2.063-1.926-3.548-1.926c-2.343,0-4.239,1.898-4.239,4.24
			c0,2.344,1.896,4.242,4.239,4.242c2.341,0,4.242-1.898,4.242-4.242c0-0.098-0.021-0.188-0.029-0.285l6.591-2.207
			C16.246,28.252,16.01,27.576,15.857,26.869z"/>
		<circle cx="25.33" cy="24.823" r="7.271"/>
	</g>
</g>
</svg>
