<?xml version="1.0" encoding="utf-8"?>
<!-- Generator: Adobe Illustrator 16.0.0, SVG Export Plug-In . SVG Version: 6.00 Build 0)  -->
<!DOCTYPE svg PUBLIC "-//W3C//DTD SVG 1.1//EN" "http://www.w3.org/Graphics/SVG/1.1/DTD/svg11.dtd">
<svg version="1.1" id="Layer_1" xmlns="http://www.w3.org/2000/svg" xmlns:xlink="http://www.w3.org/1999/xlink" x="0px" y="0px"
	 width="50px" height="50px" viewBox="0 0 50 50" enable-background="new 0 0 50 50" xml:space="preserve">
<g>
	<path d="M48.036,15.73L48.036,15.73l-3.313,5.738v22.976c0,0.143-0.135,0.278-0.278,0.278H5.556c-0.143,0-0.278-0.135-0.278-0.278
		V5.556c0-0.143,0.135-0.278,0.278-0.278h28.42l1.291-2.235h0.001l0.744-1.29C36.395,1.088,36.877,0.507,37.425,0H5.556
		C2.492,0,0,2.492,0,5.556v38.889C0,47.508,2.492,50,5.556,50h38.889C47.508,50,50,47.508,50,44.444V12.326L48.036,15.73z"/>
	<polygon points="25.888,26.231 25.943,36.589 34.944,31.461 45.594,13.013 36.538,7.785 	"/>
	<path d="M48.076,8.714c1.25-2.167,0.233-5.087-2.267-6.531c-2.5-1.444-5.539-0.865-6.791,1.304L37.708,5.76l9.057,5.227
		L48.076,8.714z"/>
</g>
</svg>
