<?xml version="1.0" encoding="utf-8"?>
<!-- Generator: Adobe Illustrator 18.0.0, SVG Export Plug-In . SVG Version: 6.00 Build 0)  -->
<!DOCTYPE svg PUBLIC "-//W3C//DTD SVG 1.1//EN" "http://www.w3.org/Graphics/SVG/1.1/DTD/svg11.dtd">
<svg version="1.1" id="Layer_1" xmlns="http://www.w3.org/2000/svg" xmlns:xlink="http://www.w3.org/1999/xlink" x="0px" y="0px"
	 viewBox="0 0 612 792" enable-background="new 0 0 612 792" xml:space="preserve">
<path d="M487.7,792c-19,0-38.8-2.6-60.3-8c-24-6-39.1-17.6-50.5-38.8c-9.9-19-14.7-40.3-18.4-58.9c-0.7-3.6-1.4-7.1-2.1-10.6
	c-5.2-25.9-10.6-52.6,0.9-79.5c2.6-6.6,6-12.5,9.3-18.2c2-3.4,3.9-6.7,5.6-10c10.4-20.7,6.5-49.4-9.3-69.8
	c-13.3-18.2-34.8-28.9-57.8-28.9s-44.5,10.8-57.6,28.8c-17.8,24.3-17.8,51.7-10.2,66.9c2.1,4.6,4.6,8.8,6.9,12.9
	c2.8,4.9,5.7,9.9,7.9,15.2c11.6,27.4,6.5,56.6,2,82.3c-1.2,5.9-2.1,12-3,17.8c-2,13.7-4.1,27.8-9.8,41.4
	c-6.8,17.5-21.5,29.8-32.6,37c-29.4,19.6-66.4,21-91.6,20.3c-41.3-1.1-71.4-11.1-89.4-29.8C11.4,744.9,10.5,722,9.7,701.8l0-0.4
	c-0.7-24.4-1.5-48-2.2-71.6l-0.1-3.1c-0.5-23.2-0.3-46.4-0.2-68.9c0.1-11.4,0.2-22.9,0.2-34.5c0-3.8,3-6.8,6.8-6.8s6.8,3,6.8,6.8
	c0,11.6-0.1,23.1-0.2,34.6c-0.2,22.3-0.3,45.5,0.2,68.4l0.1,3c0.7,23.6,1.5,47.2,2.2,71.6l0,0.3c0.7,18.7,1.5,38,14.3,51.4
	c15.4,16,42.3,24.6,79.9,25.6c37.2,1,63.8-4.8,83.8-18.1c9.5-6.2,21.9-16.4,27.5-30.7c5.1-12.1,6.9-24.9,9-38.3
	c0.9-6,1.8-12.2,3-18.3c4.4-24.9,9-50.8-1.1-74.5c-1.9-4.6-4.5-9-7.2-13.7c-2.5-4.4-5.1-8.9-7.4-13.8c-9.3-18.5-9.7-51.8,11.5-80.8
	c15.7-21.5,41.4-34.3,68.6-34.3c27.2,0,52.9,12.8,68.6,34.3c18.8,24.2,23.2,58.8,10.6,84c-1.9,3.7-4,7.3-6,10.8
	c-3.2,5.5-6.2,10.7-8.4,16.3c0,0.1-0.1,0.2-0.1,0.3c-9.9,23-5.2,46.6-0.1,71.5c0.7,3.6,1.4,7.2,2.1,10.7c3.5,17.5,8,37.8,17.1,55.1
	c9.5,17.6,21.6,26.9,41.8,32c22.9,5.7,43.7,8.2,63.6,7.5c38.8-1,64.9-9.4,79.9-25.6c12.9-13.6,13.6-32.1,14.3-51.7
	c0-0.1,0-0.2,0-0.3c1.5-24.7,2.3-49,2.3-74.2c1-42.4,0.4-85.4-0.1-127c-0.3-24.8-0.6-50.4-0.6-75.5c0-36.6-29.8-66.3-66.3-66.3
	H109.6c-1.8,0-3.6-0.7-4.8-2c-1.3-1.3-2-3-2-4.9l1.5-103.9C104.4,110.8,196.5,0,309.8,0s205.4,111.5,205.4,248.5
	c0,3.8-3,6.8-6.8,6.8s-6.8-3-6.8-6.8c0-129.5-86.1-234.9-191.8-234.9C204,13.6,117.9,118.3,117.9,247l-1.4,97.1h407.3
	c44.1,0,79.9,35.9,79.9,79.9c0,25,0.3,50.6,0.6,75.3c0.5,41.7,1.1,84.8,0.1,127.3c0,25.4-0.8,49.9-2.3,74.9
	c-0.8,20.2-1.7,43.2-18,60.4c-17.6,18.9-46.9,28.7-89.4,29.8C492.4,792,490.1,792,487.7,792z"/>
</svg>
