<?xml version="1.0" encoding="utf-8"?>
<!-- Generator: Adobe Illustrator 18.0.0, SVG Export Plug-In . SVG Version: 6.00 Build 0)  -->
<!DOCTYPE svg PUBLIC "-//W3C//DTD SVG 1.1//EN" "http://www.w3.org/Graphics/SVG/1.1/DTD/svg11.dtd">
<svg version="1.1" id="Layer_1" xmlns="http://www.w3.org/2000/svg" xmlns:xlink="http://www.w3.org/1999/xlink" x="0px" y="0px"
	 viewBox="0 0 612 792" enable-background="new 0 0 612 792" xml:space="preserve">
<g>
	<path d="M78.7,438.6c-1.4,0-2.7-0.5-3.8-1.6L1.6,363.7c-2.1-2.1-2.1-5.4,0-7.5c2.1-2.1,5.4-2.1,7.5,0l69.6,69.6l70.8-70.8
		c2.1-2.1,5.4-2.1,7.5,0c2.1,2.1,2.1,5.4,0,7.5L82.4,437C81.4,438.1,80,438.6,78.7,438.6z"/>
	<path d="M343.3,664.7c-97.3,0-187.3-52.9-235-138c-1.4-2.6-0.5-5.8,2-7.2c2.6-1.4,5.8-0.5,7.2,2c45.8,81.8,132.3,132.6,225.7,132.6
		c142.3,0,258.1-115.8,258.1-258.1c0-142.3-116.1-258.1-258.7-258.1C200.4,137.9,84.6,253.7,84.6,396c0,7.6,0.6,14.5,1.2,21.8
		l-10.6,0.9l5.3-0.4l-5.3,0.4C74.6,411.5,74,404,74,396c0-148.2,120.5-268.7,268.7-268.7C491.2,127.3,612,247.8,612,396
		S491.5,664.7,343.3,664.7z"/>
</g>
</svg>
