<?xml version="1.0" encoding="utf-8"?>
<!-- Generator: Adobe Illustrator 18.0.0, SVG Export Plug-In . SVG Version: 6.00 Build 0)  -->
<!DOCTYPE svg PUBLIC "-//W3C//DTD SVG 1.1//EN" "http://www.w3.org/Graphics/SVG/1.1/DTD/svg11.dtd">
<svg version="1.1" id="Layer_1" xmlns="http://www.w3.org/2000/svg" xmlns:xlink="http://www.w3.org/1999/xlink" x="0px" y="0px"
	 viewBox="0 0 612 792" enable-background="new 0 0 612 792" xml:space="preserve">
<g>
	<path d="M428.4,682.3H181.7c-25.9,0-47.8-21.3-47.8-46.6v-1.2c0-25.1,22.3-47.2,47.8-47.2h52.1c3,0,5.3,2.4,5.3,5.3
		s-2.4,5.3-5.3,5.3h-52.1c-19.8,0-37.1,17-37.1,36.5v1.2c0,19.4,17,35.9,37.1,35.9h246.7c19.1,0,33.4-15.4,33.4-35.9v-1.2
		c0-20.5-14.7-36.5-33.4-36.5H303.6c-3,0-5.3-2.4-5.3-5.3v-15.2c0-3,2.4-5.3,5.3-5.3c3,0,5.3,2.4,5.3,5.3v9.8h119.5
		c24.8,0,44.1,20.7,44.1,47.2v1.2C472.6,662.3,453.6,682.3,428.4,682.3z"/>
	<path d="M303.6,572.6c-3,0-5.3-2.4-5.3-5.3V518H49.6C22.2,518,0,497.7,0,472.7V156.9c0-25.6,22.7-47.2,49.6-47.2h515.2
		c26,0,47.2,21.2,47.2,47.2v316.4c0,25.4-20.7,45.4-47.2,45.4h-177c-3,0-5.3-2.4-5.3-5.3c0-3,2.4-5.3,5.3-5.3h177
		c20.5,0,36.5-15.2,36.5-34.7V156.9c0-20.1-16.4-36.5-36.5-36.5H49.6c-20.7,0-38.9,17-38.9,36.5v315.8c0,19.1,17.5,34.7,38.9,34.7
		h254c3,0,5.3,2.4,5.3,5.3v54.6C308.9,570.2,306.5,572.6,303.6,572.6z"/>
	<path d="M303.6,582.9c-3,0-5.3-2.4-5.3-5.3v-9.7c0-3,2.4-5.3,5.3-5.3s5.3,2.4,5.3,5.3v9.7C308.9,580.5,306.5,582.9,303.6,582.9z"/>
</g>
</svg>
