<?xml version="1.0" encoding="iso-8859-1"?>
<!-- Generator: Adobe Illustrator 18.1.1, SVG Export Plug-In . SVG Version: 6.00 Build 0)  -->
<svg version="1.1" id="Capa_1" xmlns="http://www.w3.org/2000/svg" xmlns:xlink="http://www.w3.org/1999/xlink" x="0px" y="0px"
	 viewBox="0 0 407.989 407.989" style="enable-background:new 0 0 407.989 407.989;" xml:space="preserve">
<g>
	<path style="fill:#010002;" d="M123.502,391.732v-8.706c0-4.495-3.642-8.129-8.129-8.129s-8.129,3.633-8.129,8.129v16.834
		c0,4.495,3.642,8.129,8.129,8.129h218.017c4.487,0,8.129-3.633,8.129-8.129V77.254c0-4.495-3.642-8.129-8.129-8.129h-24.825
		c-4.487,0-8.129,3.633-8.129,8.129c0,4.495,3.642,8.129,8.129,8.129h16.696v306.35H123.502z"/>
	<path style="fill:#010002;" d="M101.034,105.184c0,4.495,3.642,8.129,8.129,8.129h138.259c4.487,0,8.129-3.633,8.129-8.129
		c0-4.495-3.642-8.129-8.129-8.129H109.163C104.676,97.055,101.034,100.689,101.034,105.184z"/>
	<path style="fill:#010002;" d="M247.422,152.882H109.163c-4.487,0-8.129,3.633-8.129,8.129s3.642,8.129,8.129,8.129h138.259
		c4.487,0,8.129-3.633,8.129-8.129C255.55,156.516,251.909,152.882,247.422,152.882z"/>
	<path style="fill:#010002;" d="M247.422,208.717H109.163c-4.487,0-8.129,3.633-8.129,8.129c0,4.495,3.642,8.129,8.129,8.129
		h138.259c4.487,0,8.129-3.633,8.129-8.129S251.909,208.717,247.422,208.717z"/>
	<path style="fill:#010002;" d="M247.422,264.553H109.163c-4.487,0-8.129,3.633-8.129,8.129c0,4.495,3.642,8.129,8.129,8.129
		h138.259c4.487,0,8.129-3.633,8.129-8.129C255.55,268.194,251.909,264.553,247.422,264.553z"/>
	<path style="fill:#010002;" d="M297.209,357.324V38.269c0-4.495-3.642-8.129-8.129-8.129h-39.749v-6.942
		C249.332,10.413,239.773,0,228.027,0s-21.305,10.405-21.305,23.199v6.942h-7.121v-6.942C199.601,10.413,190.042,0,178.288,0
		c-11.754,0-21.313,10.405-21.313,23.199v6.942h-7.113v-6.942C149.862,10.413,140.303,0,128.557,0s-21.313,10.405-21.313,23.199
		v6.942H74.6c-4.487,0-8.129,3.633-8.129,8.129v319.055c0,4.495,3.642,8.129,8.129,8.129h214.481
		C293.568,365.453,297.209,361.811,297.209,357.324z M280.952,349.195H82.729V46.398h32.644c4.487,0,8.129-3.633,8.129-8.129v-15.07
		c0-3.764,2.317-6.942,5.056-6.942c2.739,0,5.048,3.178,5.048,6.942v15.07c0,4.495,3.642,8.129,8.129,8.129h23.378
		c4.487,0,8.129-3.633,8.129-8.129v-15.07c0-3.764,2.317-6.942,5.056-6.942s5.056,3.178,5.056,6.942v15.07
		c0,4.495,3.642,8.129,8.129,8.129h23.378c4.487,0,8.129-3.633,8.129-8.129v-15.07c0-3.764,2.309-6.942,5.048-6.942
		c2.739,0,5.048,3.178,5.048,6.942v15.07c0,4.495,3.642,8.129,8.129,8.129h39.749v302.798H280.952z"/>
</g>
<g>
</g>
<g>
</g>
<g>
</g>
<g>
</g>
<g>
</g>
<g>
</g>
<g>
</g>
<g>
</g>
<g>
</g>
<g>
</g>
<g>
</g>
<g>
</g>
<g>
</g>
<g>
</g>
<g>
</g>
</svg>
