<?xml version="1.0" encoding="utf-8"?>
<!-- Generator: Adobe Illustrator 18.0.0, SVG Export Plug-In . SVG Version: 6.00 Build 0)  -->
<!DOCTYPE svg PUBLIC "-//W3C//DTD SVG 1.1//EN" "http://www.w3.org/Graphics/SVG/1.1/DTD/svg11.dtd">
<svg version="1.1" id="Layer_1" xmlns="http://www.w3.org/2000/svg" xmlns:xlink="http://www.w3.org/1999/xlink" x="0px" y="0px"
	 viewBox="0 0 612 792" enable-background="new 0 0 612 792" xml:space="preserve">
<path d="M314.6,709.9c-36.9,0-74.1-2.6-111.4-7.7c-27.3-3.5-56.1-8.8-85.8-15.9c-2.9-0.7-4.7-3.6-4-6.5c0.7-2.9,3.6-4.7,6.5-4
	c29.3,7,57.8,12.3,84.7,15.7c76.5,10.5,152.6,10.1,226.2-1.2c36.1-5.2,73.3-13.6,110.7-24.8c4.5-1.5,9.2-2.8,14.2-4.2
	c13.3-3.8,27.1-7.8,38.2-14.1c2-1.2,4-3,5.6-5.1c3.5-5.5,1-14.1-1.9-21.8l-0.7-2.1c-7.5-22-15.3-44.8-28.5-63.7
	c-18.2-25.5-41.2-33.1-71.8-41.1l-0.2,0c-23.9-6-48.6-12.1-73.4-18.2c-1.3-0.3-2.4-0.6-3.6-0.9c-8.2-2.1-16.6-4.3-23.8-9.7
	c-18.8-12.8-27.2-39.6-27.2-60.4c0-24.4,11.9-39.3,23.4-53.7c5.4-6.8,11.1-13.8,15.6-22c13.5-24.1,20.6-51.8,20.6-80.2
	c0-39.2-14.1-75.1-41.8-106.5c-17.4-17.4-22.3-27.4-16.5-33.5c7.3-8.3,15.9-22.2,17.4-32.5c-22.1,10.9-43.1,21-69.2,25.6
	c-37.7,6.4-68.5,13.3-93.3,38.6c-26.9,27.4-42.3,67.1-42.3,108.9c0,27.4,6.7,54.1,19.4,77.2c4.2,7.5,9.8,14.5,15.3,21.4
	c10.7,13.5,21.7,27.4,24.3,46.3c3.3,23.5-5.8,56.7-26.6,71.5c-8.2,5.5-17.9,8-27.3,10.5c-23.9,6-48.5,12.1-73.8,18.3
	c-21.9,5.2-41.3,10.4-56.3,22.7c-24.3,19.6-33.1,52.8-40.2,79.4c-2.1,8.2-4.7,19.2-6.6,30c-0.5,2.9-3.3,4.9-6.2,4.4
	c-2.9-0.5-4.9-3.3-4.4-6.2c2-11.2,4.7-22.3,6.8-30.8c7.5-28.2,16.8-63.3,43.9-85.1c16.8-13.7,37.4-19.3,60.6-24.8
	c25.2-6.2,49.8-12.3,73.6-18.2c8.9-2.4,17.3-4.6,23.9-9c17.1-12.1,24.8-41.2,22-61.2c-2.2-16-11.8-28.2-22.1-41
	c-5.7-7.2-11.6-14.6-16.2-22.8c-13.6-24.8-20.8-53.2-20.8-82.4c0-44.5,16.5-87,45.4-116.4c27.1-27.7,59.5-35,99.1-41.7
	c24.9-4.3,44.5-14,67.2-25.1l6.2-3.1c1.4-0.7,3-0.7,4.5-0.1c1.4,0.6,2.5,1.8,3,3.3c5.9,18.4-14.7,44-18.7,48.9
	c0.7,2.2,4.3,8.3,15.5,19.6c0.1,0.1,0.2,0.2,0.2,0.2c29.6,33.5,44.6,71.8,44.6,113.8c0,30.2-7.6,59.8-22,85.4
	c-5,8.9-10.9,16.3-16.6,23.5c-11.3,14.1-21.1,26.3-21.1,47c0,17.4,7.1,41,22.6,51.6c0.1,0,0.1,0.1,0.2,0.1c5.5,4.1,12.6,6,20.2,7.9
	c1.2,0.3,2.4,0.6,3.6,0.9c24.8,6,49.5,12.2,73.4,18.2l0.2,0.1c31.8,8.3,57.7,16.9,78,45.3c14.1,20.2,22.1,43.7,29.9,66.4l0.7,1.9
	c3.8,10.2,6.9,22,0.6,31.5c-0.1,0.1-0.1,0.2-0.2,0.2c-2.5,3.3-5.5,6.1-8.8,8.1c-12.3,7.1-26.7,11.2-40.7,15.2
	c-4.9,1.4-9.6,2.7-14,4.2c-38,11.4-75.8,19.9-112.3,25.2C393.7,707,354.3,709.9,314.6,709.9z"/>
</svg>
