<?xml version="1.0" encoding="utf-8"?>
<!-- Generator: Adobe Illustrator 18.0.0, SVG Export Plug-In . SVG Version: 6.00 Build 0)  -->
<!DOCTYPE svg PUBLIC "-//W3C//DTD SVG 1.1//EN" "http://www.w3.org/Graphics/SVG/1.1/DTD/svg11.dtd">
<svg version="1.1" id="Layer_1" xmlns="http://www.w3.org/2000/svg" xmlns:xlink="http://www.w3.org/1999/xlink" x="0px" y="0px"
	 viewBox="0 0 612 792" enable-background="new 0 0 612 792" xml:space="preserve">
<path d="M540.3,770.8H195.6c-3.7,0-6.7-3-6.7-6.7V503.3c0-3.7,3-6.7,6.7-6.7h195c3.7,0,6.7,3,6.7,6.7v156.5c0,3.7-3,6.7-6.7,6.7
	c-3.7,0-6.7-3-6.7-6.7V510H202.3v247.4h338c32.2,0,58.3-26.2,58.3-58.3V304.5L306,36.9L13.3,304.5v355.4c0,3.7-3,6.7-6.7,6.7
	s-6.7-3-6.7-6.7V301.5c0-1.9,0.8-3.7,2.2-4.9L301.5,23c2.5-2.3,6.5-2.3,9,0l299.3,273.6c1.4,1.3,2.2,3.1,2.2,4.9v397.6
	C612,738.6,579.8,770.8,540.3,770.8z"/>
</svg>
